<?xml version="1.0" encoding="UTF-8" standalone="no"?>
<!-- Created with Inkscape (http://www.inkscape.org/) -->

<svg
   xmlns:dc="http://purl.org/dc/elements/1.1/"
   xmlns:cc="http://creativecommons.org/ns#"
   xmlns:rdf="http://www.w3.org/1999/02/22-rdf-syntax-ns#"
   xmlns:svg="http://www.w3.org/2000/svg"
   xmlns="http://www.w3.org/2000/svg"
   xmlns:xlink="http://www.w3.org/1999/xlink"
   version="1.1"
   width="43.525654"
   height="47.052574"
   id="svg2">
  <defs
     id="defs4">
    <linearGradient
       id="linearGradient5471">
      <stop
         id="stop5473"
         style="stop-color:#fdffff;stop-opacity:1"
         offset="0" />
      <stop
         id="stop5475"
         style="stop-color:#fdffff;stop-opacity:0"
         offset="1" />
    </linearGradient>
    <linearGradient
       id="linearGradient5231">
      <stop
         id="stop5233"
         style="stop-color:#ffffff;stop-opacity:1"
         offset="0" />
      <stop
         id="stop5235"
         style="stop-color:#ffffff;stop-opacity:0"
         offset="1" />
    </linearGradient>
    <linearGradient
       x1="-14.922431"
       y1="2.7559185"
       x2="-14.761623"
       y2="20.570356"
       id="linearGradient5357-3"
       xlink:href="#linearGradient5231-1"
       gradientUnits="userSpaceOnUse"
       gradientTransform="matrix(2.0776105,0,0,1.4482635,52.777561,-3.1747204)" />
    <linearGradient
       id="linearGradient5231-1">
      <stop
         id="stop5233-6"
         style="stop-color:#ffffff;stop-opacity:1"
         offset="0" />
      <stop
         id="stop5235-8"
         style="stop-color:#ffffff;stop-opacity:0"
         offset="1" />
    </linearGradient>
    <linearGradient
       x1="20.973358"
       y1="46.108719"
       x2="21.099012"
       y2="38.108719"
       id="linearGradient5492"
       xlink:href="#linearGradient5471"
       gradientUnits="userSpaceOnUse"
       gradientTransform="matrix(1.0532356,0,0,0.97338521,-1.0518175,2.0310026)" />
    <linearGradient
       x1="-14.922431"
       y1="2.7559185"
       x2="-14.761623"
       y2="20.570356"
       id="linearGradient5494"
       xlink:href="#linearGradient5231"
       gradientUnits="userSpaceOnUse"
       gradientTransform="matrix(2.0776105,0,0,1.4482635,52.402561,-3.6747204)" />
    <linearGradient
       x1="-14.922431"
       y1="2.7559185"
       x2="-14.761623"
       y2="20.570356"
       id="linearGradient5508"
       xlink:href="#linearGradient5231"
       gradientUnits="userSpaceOnUse"
       gradientTransform="matrix(2.0776105,0,0,1.4482635,52.429203,-3.6747204)" />
    <linearGradient
       x1="20.973358"
       y1="46.108719"
       x2="21.099012"
       y2="38.108719"
       id="linearGradient5511"
       xlink:href="#linearGradient5471"
       gradientUnits="userSpaceOnUse"
       gradientTransform="matrix(1.0532356,0,0,0.97338521,-1.0251758,2.0310026)" />
  </defs>
  <metadata
     id="metadata7">
    <rdf:RDF>
      <cc:Work
         rdf:about="">
        <dc:format>image/svg+xml</dc:format>
        <dc:type
           rdf:resource="http://purl.org/dc/dcmitype/StillImage" />
        <dc:title></dc:title>
      </cc:Work>
    </rdf:RDF>
  </metadata>
  <rect
     width="43.525654"
     height="43.887711"
     rx="10.506354"
     ry="10.794776"
     x="3.1108094e-009"
     y="3.1648645"
     id="rect5317-8"
     style="fill:url(#linearGradient5511);fill-opacity:1;stroke:none" />
  <rect
     width="42.256489"
     height="44.429779"
     rx="10.2"
     ry="10.928105"
     x="0.66500813"
     y="0.50168848"
     id="rect5317"
     style="fill:url(#linearGradient5508);fill-opacity:1;stroke:#848484;stroke-width:1;stroke-linecap:butt;stroke-linejoin:round;stroke-miterlimit:4;stroke-opacity:1;stroke-dasharray:none" />
  <g
     transform="matrix(0.6232202,0,0,0.6232202,18.939992,-617.83523)"
     id="g3324">
    <path
       d="m -4.732893,1056.9029 c -22.595554,-8.8287 -23.605574,-42.0596 -1.521081,-50.0454 3.273335,-1.1837 3.399349,-1.4217 3.364657,-6.3562 -0.036041,-5.12648 -0.036041,-5.12648 6.301269,-5.42646 8.043504,-0.38075 9.54538,0.71241 8.895856,6.47496 -0.456103,4.0465 -0.326069,4.3043 2.670618,5.2933 7.739331,2.5542 15.158221,12.5379 16.265725,21.8891 2.27248,19.1875 -18.113735,35.1503 -35.977044,28.1707 z m 14.784989,-7.1435 c 7.233836,-2.0082 13.496189,-10.5848 13.516969,-18.5121 0.0082,-3.1376 -2.554217,-4.9827 -4.582336,-3.2995 -1.427922,1.1851 -1.377544,1.3957 0.5,2.0902 2.579866,0.9544 2.744377,2.8368 0.247913,2.8368 -2.418553,0 -14.16,11.7778 -14.16,14.2039 0,1.0361 -0.5625,1.8107 -1.25,1.7215 -2.542717,-0.3302 -3.850895,0.1024 -3.25,1.0746 0.804319,1.3014 4.023138,1.2601 8.977454,-0.1154 z m -4.977454,-18.8846 c 0.339919,-0.55 0.168034,-1 -0.381966,-1 -0.55,0 -1.278115,0.45 -1.618034,1 -0.339919,0.55 -0.168034,1 0.381966,1 0.55,0 1.278115,-0.45 1.618034,-1 z m -3.5,-1.393 c 0,-0.2161 -0.698372,-0.661 -1.551938,-0.9885 -0.889925,-0.3415 -1.291322,-0.1739 -0.940983,0.393 0.587258,0.9502 2.492921,1.4054 2.492921,0.5955 z m 7.771496,-3.1688 c -0.3352,-0.3352 -1.148481,0.4416 -1.807291,1.7262 -1.145119,2.2328 -1.118297,2.2597 0.609456,0.6094 0.99401,-0.9494 1.533036,-2.0004 1.197835,-2.3356 z m -11.771496,1.097 c 0,-0.2556 -1.0125,-0.9555 -2.25,-1.5552 -2.160626,-1.047 -2.172895,-1.0285 -0.30887,0.4649 2.040262,1.6345 2.55887,1.8555 2.55887,1.0903 z m 16,-18.5352 c -4.541189,-2.4862 -13.129298,-2.4862 -18.5,0 -4,1.8517 -4,1.8517 9,1.8839 13,0.032 13,0.032 9.5,-1.8839 z m -6.73625,-4.7039 c -1.229938,-0.2374 -3.479938,-0.2435 -5,-0.014 -1.520063,0.2299 -0.51375,0.4241 2.23625,0.4316 2.75,0.01 3.993687,-0.1805 2.76375,-0.4179 z"
       id="path3344"
       style="fill:#d2e5ee" />
    <path
       d="m -4.252609,1057.0269 c -18.518468,-6.5944 -24.080826,-30.3392 -10.328664,-44.0914 16.860025,-16.86003 45.601848,-5.2278 45.561261,18.4393 -0.03176,18.5182 -18.173565,31.7268 -35.232597,25.6521 z m 16.126911,-7.7691 c 9.943355,-5.0238 14.193017,-15.4814 10.187213,-25.0686 -0.832219,-1.9918 -1.811335,-3.3233 -2.175812,-2.9588 -0.364478,0.3645 -1.708571,-0.3198 -2.986874,-1.5207 -2.324187,-2.1835 -2.324187,-2.1835 -4.848158,0.1876 -2.132666,2.0036 -2.287701,2.5034 -1,3.224 3.211109,1.7971 -1.282867,11.9719 -5.894562,13.3459 -2.231042,0.6647 -11.581467,9.2779 -11.581467,10.6683 0,3.2362 13.090246,4.7544 18.29966,2.1223 z m -8.29966,-3.383 c 0,-1.65 0.45,-3 1,-3 0.55,0 1,1.35 1,3 0,1.65 -0.45,3 -1,3 -0.55,0 -1,-1.35 -1,-3 z m 12.166667,-14 c 0.183333,-0.55 0.670833,-1 1.083333,-1 0.4125,0 1.676558,0 2.809017,0 1.132459,0 1.780902,0.45 1.440983,1 -0.339919,0.55 -1.753976,1 -3.14235,1 -1.388374,0 -2.374317,-0.45 -2.190983,-1 z m -10.166667,-1.107 c 0,-0.4911 -0.675,-0.893 -1.5,-0.893 -0.825,0 -1.5,0.6609 -1.5,1.4686 0,0.8946 0.586289,1.2437 1.5,0.893 0.825,-0.3165 1.5,-0.9774 1.5,-1.4686 z m -5,-1.9449 c -2.607532,-1.7753 -7,-4.0167 -7,-3.572 0,0.6768 6.391793,4.5901 7.5,4.5918 0.55,8e-4 0.325,-0.4581 -0.5,-1.0198 z m 9.530297,-2.7511 c -0.671933,-0.6719 -3.530297,1.8222 -3.530297,3.0805 0,0.5679 0.902759,0.2155 2.006131,-0.783 1.103372,-0.9986 1.789246,-2.0324 1.524166,-2.2975 z m 12.939189,-10.6481 c -7.922871,-10.3874 -25.793093,-11.2894 -35.719486,-1.8028 -4.929707,4.7112 -0.993541,6.3195 4.386699,1.7923 6.823844,-5.7418 16.803404,-5.7827 25.172826,-0.1031 1.950584,1.3237 4.591407,2.606 5.868495,2.8496 1.277089,0.2435 2.457381,0.504 2.622871,0.5789 0.16549,0.075 -0.883642,-1.4168 -2.331405,-3.3149 z M -3.232856,999.62482 c 0.485222,-6.70636 14.129774,-6.70636 14.614996,0 0.307498,4.24998 0.307498,4.24998 -7.307498,4.24998 -7.614996,0 -7.614996,0 -7.307498,-4.24998 z"
       id="path3342"
       style="fill:#b0d4e4" />
    <path
       d="m 1.074642,1058.1673 c -7.585183,-1.6849 -10.196844,-2.8936 -14.174921,-6.5605 -22.791041,-21.008 1.871896,-58.05024 29.247313,-43.9276 25.957388,13.391 13.019833,56.728 -15.072392,50.4881 z m 13.721592,-10.2421 c 11.454929,-7.8491 11.416249,-30.1063 -0.05502,-31.6594 -0.916615,-0.1241 -3.354073,-0.5467 -5.416573,-0.9391 -3.546222,-0.6748 -3.75,-0.5738 -3.75,1.8583 0,3.2473 -1.648354,4.3731 -2.495391,1.7043 -0.852616,-2.6863 -1.502195,-2.5537 -4.846574,0.9897 -1.559508,1.6523 -3.179252,2.7917 -3.59943,2.532 -1.161491,-0.7178 -4.671306,2.1845 -3.75266,3.1031 0.441541,0.4415 1.115833,0.2972 1.498428,-0.3207 0.905492,-1.4624 6.369013,-1.8427 12.895318,-0.8977 7.232326,1.0473 7.945787,2.3074 4.194512,7.4083 -3.266078,4.4412 -6.5983,5.4372 -8.902393,2.661 -1.086322,-1.309 -1.950118,-0.9144 -6.490866,2.9649 -2.880783,2.4611 -5.586667,4.153 -6.013076,3.7598 -0.426409,-0.3932 0.0219,0.5314 0.996234,2.0547 4.931108,7.7091 17.937889,10.1251 25.73749,4.7808 z m -11.221592,-1.9914 c 0,-1.6824 0.45,-3.059 1,-3.059 0.55,0 1,1.0985 1,2.441 0,1.3425 -0.45,2.7191 -1,3.059 -0.583423,0.3606 -1,-0.6563 -1,-2.441 z m 12,-14.059 c 0,-0.55 1.376558,-1 3.059017,-1 1.784701,0 2.801558,0.4166 2.440983,1 -0.339919,0.55 -1.716476,1 -3.059017,1 -1.342541,0 -2.440983,-0.45 -2.440983,-1 z m -10.229167,-0.8125 c 0.217709,-0.6531 -0.316666,-1.1875 -1.1875,-1.1875 -0.870833,0 -1.583333,0.7125 -1.583333,1.5834 0,1.7659 2.152759,1.4583 2.770833,-0.3959 z m -3.770833,-1.1672 c 0,-0.5388 -1.8,-1.8979 -4,-3.0203 -5.039672,-2.571 -5.175036,-1.7986 -0.25,1.4266 4.429969,2.901 4.25,2.8335 4.25,1.5937 z m 8.530297,-3.8233 c -0.671933,-0.6719 -3.530297,1.8222 -3.530297,3.0805 0,0.5679 0.902759,0.2155 2.006131,-0.783 1.103372,-0.9986 1.789246,-2.0324 1.524166,-2.2975 z m -24.530297,-3.3107 c 0,-12.7436 28.429657,-14.6354 35.994532,-2.3951 3.782334,6.1199 7.240953,4.8509 4.014699,-1.4731 -8.586466,-16.8308 -36.071778,-15.5114 -43.410164,2.084 -1.499915,3.5964 -1.498411,3.6013 0.949318,3.1334 1.348388,-0.2577 2.451615,-0.8649 2.451615,-1.3492 z m 11,-22.88628 c 0,-4 0,-4 7.5,-4 7.5,0 7.5,0 7.5,4 0,3.99998 0,3.99998 -7.5,3.99998 -7.5,0 -7.5,0 -7.5,-3.99998 z"
       id="path3340"
       style="fill:#94c5da" />
    <path
       d="m -5.425358,1056.5675 c -5.56417,-1.7538 -13.540971,-10.4079 -15.417347,-16.7263 -8.319079,-28.0134 25.898831,-47.40325 45.119543,-25.5674 18.129066,20.5957 -3.016202,50.705 -29.702196,42.2937 z m 18.750259,-7.8138 c 15.529517,-7.5177 12.572144,-33.1217 -3.985015,-34.501 -4.363938,-0.3635 -4.412297,-0.3332 -3.995207,2.5086 0.23221,1.5822 -0.07105,3.1815 -0.673918,3.5541 -0.71483,0.4418 -1.096119,-0.5363 -1.096119,-2.8118 0,-5.5991 -8.562781,-2.2606 -13.75,5.3611 -3.108842,4.5678 -2.816816,5.5371 1,3.3191 4.168803,-2.4226 9.332396,-2.8396 10.108744,-0.8165 0.6499,1.6936 4.192102,2.0433 5.141256,0.5075 0.843975,-1.3656 3.840032,-1.2599 5.286346,0.1864 0.915129,0.9151 0.809687,1.6025 -0.461219,3.0069 -0.906161,1.0012 -2.148781,2.8299 -2.761378,4.0636 -1.448746,2.9176 -4.893499,3.3642 -7.221286,0.9362 -1.756638,-1.8323 -5.572024,-4.1931 -6.776722,-4.1931 -0.311157,0 -0.565741,0.675 -0.565741,1.5 0,0.825 -0.791754,1.5 -1.759453,1.5 -0.967699,0 -2.332418,0.9175 -3.032707,2.0388 -0.700289,1.1214 -1.731636,1.7555 -2.291882,1.4093 -1.45289,-0.898 1.821768,6.6046 3.871134,8.8692 5.174618,5.7178 15.273317,7.2842 22.963167,3.5616 z m -9.750259,-2.8199 c 0,-1.6824 0.45,-3.059 1,-3.059 0.55,0 1,1.0985 1,2.441 0,1.3425 -0.45,2.7191 -1,3.059 -0.583423,0.3606 -1,-0.6563 -1,-2.441 z m 12,-14.059 c 0,-0.55 1.376558,-1 3.059017,-1 1.784701,0 2.801558,0.4166 2.440983,1 -0.339919,0.55 -1.716476,1 -3.059017,1 -1.342541,0 -2.440983,-0.45 -2.440983,-1 z m -9.642225,-0.5 c 0,-0.55 -0.7555,-1.1455 -1.678888,-1.3233 -1.023032,-0.197 -1.678887,0.3199 -1.678887,1.3233 0,1.0034 0.655855,1.5204 1.678887,1.3233 0.923388,-0.1778 1.678888,-0.7733 1.678888,-1.3233 z m -4.357775,-1.4797 c 0,-0.5388 -1.8,-1.8979 -4,-3.0203 -5.060128,-2.5815 -5.264381,-1.2257 -0.247298,1.6416 2.061014,1.1778 3.859798,2.1903 3.997298,2.25 0.1375,0.06 0.25,-0.3324 0.25,-0.8713 z m 8.530297,-3.8233 c -0.671933,-0.6719 -3.530297,1.8222 -3.530297,3.0805 0,0.5679 0.902759,0.2155 2.006131,-0.783 1.103372,-0.9986 1.789246,-2.0324 1.524166,-2.2975 z m -25.295672,-1.0226 c 4.582927,-17.6861 31.292835,-17.9778 38.861731,-0.4244 1.911324,4.4327 4.903644,5.7854 4.903644,2.2168 0,-6.2305 -7.378599,-15.1379 -15.271708,-18.4358 -13.45106,-5.6203 -32.728292,4.9834 -32.728292,18.0025 0,3.8288 3.152475,2.817 4.234625,-1.3591 z m 12.432042,-21.841 c -3.780634,-3.78068 -0.470164,-7.33338 6.833333,-7.33338 7.5,0 7.5,0 7.5,4 0,3.79368 -11.255417,6.41128 -14.333333,3.33338 z"
       id="path3338"
       style="fill:#83bdd6" />
    <path
       d="m -5.425358,1056.5675 c -5.812516,-1.8321 -13.578266,-10.4342 -15.553397,-17.2284 -7.903556,-27.1872 25.97736,-46.4702 44.822298,-25.5101 18.669443,20.7649 -2.218008,51.2648 -29.268901,42.7385 z m 19.635564,-8.2193 c 17.588652,-10.3076 8.475147,-38.9495 -11.006066,-34.5898 -6.973753,1.5607 -11.898478,5.0632 -14.501459,10.3138 -2.319222,4.6781 -2.451511,4.4201 3.185343,6.212 3.112219,0.9894 0.691303,2.8531 -2.940514,2.2637 -3.070011,-0.4982 -3.372868,-0.3249 -3.372868,1.9296 0,12.4623 16.993188,20.6936 28.635564,13.8707 z m -10.635564,-2.4734 c 0,-1.824 0.415001,-2.8615 1,-2.5 0.55,0.3399 1,1.4649 1,2.5 0,1.0351 -0.45,2.1601 -1,2.5 -0.584999,0.3616 -1,-0.6759 -1,-2.5 z m -1.965964,-12.9364 c -0.605499,-1.1314 -2.885861,-2.9677 -5.067472,-4.0806 -2.18161,-1.113 -3.966564,-2.4379 -3.966564,-2.9443 0,-1.9762 1.789555,-1.8183 5.908998,0.5216 5.233322,2.9726 5.868828,2.9971 8.702523,0.335 2.820624,-2.6499 5.309566,-1.5706 2.792402,1.2109 -0.949499,1.0492 -2.227616,2.913 -2.840259,4.1418 -1.480308,2.9693 -4.165115,3.3652 -5.529628,0.8156 z m 4.37973,-1.5636 c 0.03079,-0.55 1.187796,-1.9983 2.571113,-3.2184 1.383316,-1.2201 2.022365,-2.2326 1.420109,-2.25 -0.602257,-0.017 -1.909502,0.8684 -2.904988,1.9684 -0.995486,1.1 -2.415231,2 -3.154988,2 -0.739756,0 -1.345012,0.708 -1.345012,1.5733 0,1.7059 3.318137,1.6346 3.413766,-0.073 z m -4.413766,-1.4797 c 0,-0.5388 -1.8,-1.8979 -4,-3.0203 -5.060128,-2.5815 -5.264381,-1.2257 -0.247298,1.6416 2.061014,1.1778 3.859798,2.1903 3.997298,2.25 0.1375,0.06 0.25,-0.3324 0.25,-0.8713 z m 14.5,1.9797 c -0.361549,-0.585 0.675955,-1 2.5,-1 1.824045,0 2.861549,0.415 2.5,1 -0.339919,0.55 -1.464919,1 -2.5,1 -1.035081,0 -2.160081,-0.45 -2.5,-1 z m -12.5,-14.5 c 0,-1.375 0.45,-2.5 1,-2.5 0.55,0 1,1.125 1,2.5 0,1.375 -0.45,2.5 -1,2.5 -0.55,0 -1,-1.125 -1,-2.5 z m -20,14.1518 c 0,-23.6774 34.327144,-27.3875 40.726955,-4.4018 2.085093,7.4889 5.942498,8.7096 4.739942,1.5 -4.185043,-25.0902 -36.493728,-30.06678 -47.115587,-7.2573 -3.010924,6.4657 -3.174179,12.0787 -0.35131,12.0787 1.305445,0 2,-0.6666 2,-1.9196 z m 13.666667,-28.3184 c -3.780634,-3.78068 -0.470164,-7.33338 6.833333,-7.33338 7.5,0 7.5,0 7.5,4 0,3.79368 -11.255417,6.41128 -14.333333,3.33338 z m 11.98927,-5.60241 c -0.273923,-0.67703 -0.481368,0.11903 -0.460988,1.76903 0.02038,1.64998 0.244498,2.20398 0.498042,1.23098 0.253543,-0.97298 0.236869,-2.32298 -0.03705,-3.00001 z"
       id="path3336"
       style="fill:#67b0cd" />
    <path
       d="m -6.980966,1055.5011 c -22.049645,-10.2675 -19.060578,-43.0819 4.521088,-49.6332 25.577163,-7.10562 44.346694,25.6281 25.501187,44.4736 -7.823459,7.8234 -19.859489,9.892 -30.022275,5.1596 z m 21.169264,-7.14 c 2.425383,-1.4214 5.392728,-4.3547 6.828397,-6.75 2.721583,-4.5409 3.494269,-4.4476 1.124166,0.1357 -2.155653,4.1685 2.26432,3.8133 4.62818,-0.372 13.43612,-23.7892 -22.066595,-47.03567 -40.541569,-26.5458 -8.538098,9.4692 -9.172954,29.0458 -0.941938,29.0458 2.269846,0 2.294432,-0.089 0.814788,-2.9503 -0.839124,-1.6227 -1.490154,-3.7602 -1.446733,-4.75 0.04758,-1.0846 0.495603,-0.6077 1.127605,1.2003 4.156221,11.8901 17.836667,17.181 28.407104,10.9863 z m -10.418707,-2.9863 c -0.02038,-1.65 0.187065,-2.446 0.460988,-1.769 0.273923,0.677 0.290597,2.027 0.03705,3 -0.25354,0.973 -0.477659,0.419 -0.498038,-1.231 z m 19.990033,-13.1682 c -0.10174,-2.8425 -0.443959,-5.9925 -0.760487,-7 -0.538586,-1.7143 -0.503167,-1.7192 0.552109,-0.077 0.620189,0.9649 0.962408,4.1149 0.760488,7 -0.367127,5.2457 -0.367127,5.2457 -0.55211,0.077 z M 0.921863,1032.15 c -1.6511,-1.5264 -3.867175,-3.3629 -4.924611,-4.0813 -1.057435,-0.7184 -0.180402,-0.3638 1.948962,0.788 2.69429,1.4573 3.710324,1.6739 3.341296,0.7122 -0.376216,-0.9804 0.105006,-1.2604 1.656357,-0.9638 1.348191,0.2577 2.906373,-0.3773 4.063692,-1.6562 1.032382,-1.1407 2.318,-2.0741 2.856929,-2.0741 0.538929,0 -0.229513,0.9513 -1.70765,2.114 -1.478136,1.1627 -2.441581,2.36 -2.140989,2.6606 0.300592,0.3006 1.554035,-0.3132 2.785429,-1.364 2.079054,-1.7742 2.135825,-1.778 0.795173,-0.054 -0.794049,1.0211 -1.911294,2.7856 -2.482767,3.921 -1.54605,3.0717 -2.866825,3.0712 -6.191821,0 z m 5.010554,-0.7752 c 0,-0.55 -0.7555,-1.1455 -1.678888,-1.3233 -1.023032,-0.197 -1.678887,0.3199 -1.678887,1.3233 0,1.0034 0.655855,1.5204 1.678887,1.3233 0.923388,-0.1778 1.678888,-0.7733 1.678888,-1.3233 z m -21.79604,-1.355 c 1.069944,-9.4043 8.985278,-18.2768 16.148427,-18.1011 0.984411,0.024 0.04598,0.6655 -2.085397,1.4252 -7.226888,2.576 -11.028201,7.7332 -14.027538,19.0309 -0.29203,1.1 -0.308001,0.04 -0.03549,-2.355 z m 3.438265,1.855 c 0,-0.55 1.376558,-1 3.059017,-1 1.784701,0 2.801558,0.4166 2.440983,1 -0.339919,0.55 -1.716476,1 -3.059017,1 -1.342541,0 -2.440983,-0.45 -2.440983,-1 z m 28.730968,-0.6559 c 0.677033,-0.2739 2.027033,-0.2906 3,-0.037 0.972968,0.2536 0.419032,0.4777 -1.230968,0.4981 -1.65,0.02 -2.446064,-0.1871 -1.769032,-0.461 z m -19.980968,-4.9161 c -1.973978,-1.0709 -2.75,-1.1536 -2.75,-0.2933 0,0.6593 -0.270061,0.9286 -0.600136,0.5985 -0.330074,-0.3301 -0.304536,-1.0784 0.05675,-1.663 0.616306,-0.9972 6.543386,1.227 6.543386,2.4555 0,0.6435 -0.107447,0.6072 -3.25,-1.0977 z m 21.57022,-7.9754 c -2.298879,-2.3975 -5.673879,-4.7895 -7.5,-5.3156 -1.826121,-0.5261 -2.503136,-0.9972 -1.504479,-1.0468 3.380853,-0.1679 10.513721,4.9342 12.805499,9.1598 1.317902,2.43 0.956041,2.1636 -3.80102,-2.7974 z m -14.57022,-7.1149 c 0.6875,-0.2774 1.8125,-0.2774 2.5,0 0.6875,0.2775 0.125,0.5044 -1.25,0.5044 -1.375,0 -1.9375,-0.2269 -1.25,-0.5044 z m -6.083333,-8.0043 c -3.780634,-3.78068 -0.470164,-7.33338 6.833333,-7.33338 7.5,0 7.5,0 7.5,4 0,3.79368 -11.255417,6.41128 -14.333333,3.33338 z m 11.98927,-5.60241 c -0.273923,-0.67703 -0.481368,0.11903 -0.460988,1.76903 0.02038,1.64998 0.244498,2.20398 0.498042,1.23098 0.253543,-0.97298 0.236869,-2.32298 -0.03705,-3.00001 z"
       id="path3334"
       style="fill:#629ba3" />
    <path
       d="m -5.990734,1056.0371 c -26.068147,-12.1778 -18.449002,-50.4563 10.065376,-50.5685 34.635585,-0.1362 35.607627,50.551 1,52.1452 -5.293811,0.2438 -7.9909,-0.1405 -11.065376,-1.5767 z m 19.355214,-7.0559 c 4.152075,-2.1191 6.215195,-4.1971 8.544965,-8.6064 0.871817,-1.65 1.603139,-2.6401 1.625159,-2.2003 0.02202,0.4398 -0.605163,2.0473 -1.393743,3.5723 -2.123884,4.1071 2.177386,3.7808 4.902296,-0.372 14.426643,-21.9861 -21.452675,-46.36197 -40.380624,-27.434 -8.76972,8.7697 -9.743302,29.934 -1.376999,29.934 2.269846,0 2.294432,-0.089 0.814788,-2.9503 -0.839124,-1.6227 -1.505928,-3.7602 -1.481787,-4.75 0.02414,-0.9898 0.663555,-0.061 1.42092,2.0631 3.856647,10.8184 17.030152,15.9979 27.325025,10.7436 z m -9.594889,-3.6064 c -0.02038,-1.65 0.187065,-2.446 0.460988,-1.769 0.273923,0.677 0.290597,2.027 0.03705,3 -0.25354,0.973 -0.477659,0.419 -0.498038,-1.231 z m 20.104715,-13.5 c 0,-3.025 0.187466,-4.2625 0.41659,-2.75 0.229125,1.5125 0.229125,3.9875 0,5.5 -0.229124,1.5125 -0.41659,0.275 -0.41659,-2.75 z m -40.141769,0 c 0,-1.375 0.226973,-1.9375 0.504386,-1.25 0.277412,0.6875 0.277412,1.8125 0,2.5 -0.277413,0.6875 -0.504386,0.125 -0.504386,-1.25 z m 3.842105,0 c 0,-0.55 1.376558,-1 3.059017,-1 1.784701,0 2.801558,0.4166 2.440983,1 -0.339919,0.55 -1.716476,1 -3.059017,1 -1.342541,0 -2.440983,-0.45 -2.440983,-1 z m 28.730968,-0.6559 c 0.677033,-0.2739 2.027033,-0.2906 3,-0.037 0.972968,0.2536 0.419032,0.4777 -1.230968,0.4981 -1.65,0.02 -2.446064,-0.1871 -1.769032,-0.461 z m -8.230968,-2.3441 c 0.995486,-1.1 2.034975,-2 2.309975,-2 0.275,0 -0.314489,0.9 -1.309975,2 -0.995486,1.1 -2.034975,2 -2.309975,2 -0.275,0 0.314489,-0.9 1.309975,-2 z m -2,-1 c 0.995486,-1.1 2.034975,-2 2.309975,-2 0.275,0 -0.314489,0.9 -1.309975,2 -0.995486,1.1 -2.034975,2 -2.309975,2 -0.275,0 0.314489,-0.9 1.309975,-2 z m -21.478038,-0.9121 c -0.07556,-4.8588 10.259411,-15.182 15.065896,-15.0487 0.776678,0.022 -0.162858,0.7213 -2.087858,1.5551 -4.764725,2.0639 -8.883208,6.1087 -11.104137,10.9057 -1.018566,2.2 -1.861822,3.3646 -1.873901,2.5879 z m 33.478038,-9.0879 c -1.5808,-1.65 -2.649182,-3 -2.374182,-3 0.275,0 1.793382,1.35 3.374182,3 1.5808,1.65 2.649182,3 2.374182,3 -0.275,0 -1.793382,-1.35 -3.374182,-3 z m -5.5,-4 c -0.901292,-0.5824 -1.024633,-0.9755 -0.309017,-0.9847 0.655041,-0.01 1.469098,0.4347 1.809017,0.9847 0.767305,1.2415 0.421123,1.2415 -1.5,0 z m -15,-14.19998 c 0,-4.68649 1.575405,-4.20137 2.273221,0.69998 0.422377,2.9667 0.430237,2.9612 0.708588,-0.49998 0.281473,-3.5 0.281473,-3.5 1.018191,0 0.736718,3.49998 0.736718,3.49998 1,0 0.263282,-3.5 0.263282,-3.5 1,0 0.736718,3.49998 0.736718,3.49998 0.868359,0.24998 0.171372,-4.23087 2.09191,-4.23087 2.263282,0 0.131641,3.25 0.131641,3.25 0.826738,-0.24998 0.695096,-3.5 0.695096,-3.5 1.208322,0 0.513225,3.49998 0.513225,3.49998 0.673262,-0.30902 0.199401,-4.74592 2.160037,-3.95801 2.160037,0.868 0,3.441 0,3.441 -7,3.441 -7,0 -7,0 -7,-4.19998 z"
       id="path3332"
       style="fill:#148eb2" />
    <path
       d="m -5.990734,1056.0371 c -26.068147,-12.1778 -18.449002,-50.4563 10.065376,-50.5685 34.635585,-0.1362 35.607627,50.551 1,52.1452 -5.293811,0.2438 -7.9909,-0.1405 -11.065376,-1.5767 z m 21.517601,-2.1379 c 23.250937,-11.8617 15.1028,-47.115 -10.925877,-47.2713 -29.696769,-0.1783 -34.603101,40.0136 -6.026348,49.3668 3.713195,1.2154 12.620684,0.1143 16.952225,-2.0955 z m -14.720134,-2.7389 c 1.50265,-0.2282 4.20265,-0.2328 6,-0.01 1.79735,0.2226 0.567909,0.4092 -2.732091,0.4149 -3.3,0.01 -4.770559,-0.1765 -3.267909,-0.4047 z m -10.732091,-5.2855 c -1.5808,-1.65 -2.649182,-3 -2.374182,-3 0.275,0 1.793382,1.35 3.374182,3 1.5808,1.65 2.649182,3 2.374182,3 -0.275,0 -1.793382,-1.35 -3.374182,-3 z m 28,0 c 0.995486,-1.1 2.034975,-2 2.309975,-2 0.275,0 -0.314489,0.9 -1.309975,2 -0.995486,1.1 -2.034975,2 -2.309975,2 -0.275,0 0.314489,-0.9 1.309975,-2 z m -32.041119,-5.0665 c -0.362533,-0.5866 -0.444683,-1.281 -0.182555,-1.5431 0.262128,-0.2622 0.743066,0.2178 1.068751,1.0665 0.676184,1.7621 0.09985,2.0721 -0.886196,0.4766 z m 37.773122,-6.9335 c 0,-1.925 0.205795,-2.7125 0.457323,-1.75 0.251527,0.9625 0.251527,2.5375 0,3.5 -0.251528,0.9625 -0.457323,0.175 -0.457323,-1.75 z m -15.732003,-5 c 0.995486,-1.1 2.034975,-2 2.309975,-2 0.275,0 -0.314489,0.9 -1.309975,2 -0.995486,1.1 -2.034975,2 -2.309975,2 -0.275,0 0.314489,-0.9 1.309975,-2 z m -2,-1 c 0.995486,-1.1 2.034975,-2 2.309975,-2 0.275,0 -0.314489,0.9 -1.309975,2 -0.995486,1.1 -2.034975,2 -2.309975,2 -0.275,0 0.314489,-0.9 1.309975,-2 z m 17.578947,0.5834 c -0.04342,-1.0542 0.192928,-1.6448 0.52522,-1.3125 0.332291,0.3322 0.367818,1.1947 0.07895,1.9166 -0.319226,0.7978 -0.556183,0.5608 -0.604167,-0.6041 z m -39,-1.383 c -0.08781,-1.4456 2.687465,-7.2004 3.472413,-7.2004 0.275,0 -0.124813,1.2375 -0.888474,2.75 -0.763661,1.5125 -1.639691,3.425 -1.946733,4.25 -0.375004,1.0076 -0.584174,1.0734 -0.637206,0.2004 z m 33.421053,-9.2004 c -1.5808,-1.65 -2.649182,-3 -2.374182,-3 0.275,0 1.793382,1.35 3.374182,3 1.5808,1.65 2.649182,3 2.374182,3 -0.275,0 -1.793382,-1.35 -3.374182,-3 z m -5.5,-4 c -0.901292,-0.5824 -1.024633,-0.9755 -0.309017,-0.9847 0.655041,-0.01 1.469098,0.4347 1.809017,0.9847 0.767305,1.2415 0.421123,1.2415 -1.5,0 z m -14.729167,-1.6041 c 0.332292,-0.3323 1.194792,-0.3679 1.916667,-0.079 0.797733,0.3192 0.560776,0.5562 -0.604167,0.6042 -1.054166,0.043 -1.644791,-0.193 -1.3125,-0.5252 z m -0.270833,-12.59588 c 0,-4.68649 1.575405,-4.20137 2.273221,0.69998 0.422377,2.9667 0.430237,2.9612 0.708588,-0.49998 0.281473,-3.5 0.281473,-3.5 1.018191,0 0.736718,3.49998 0.736718,3.49998 1,0 0.263282,-3.5 0.263282,-3.5 1,0 0.736718,3.49998 0.736718,3.49998 0.868359,0.24998 0.171372,-4.23087 2.09191,-4.23087 2.263282,0 0.131641,3.25 0.131641,3.25 0.826738,-0.24998 0.695096,-3.5 0.695096,-3.5 1.208322,0 0.513225,3.49998 0.513225,3.49998 0.673262,-0.30902 0.199401,-4.74592 2.160037,-3.95801 2.160037,0.868 0,3.441 0,3.441 -7,3.441 -7,0 -7,0 -7,-4.19998 z"
       id="path3330"
       style="fill:#528379" />
    <path
       d="m -4.797862,1056.4586 c -18.261229,-6.7544 -22.969917,-30.5714 -8.685619,-43.9326 17.808233,-16.65756 45.69203,-3.0883 43.847847,21.3378 -1.283154,16.9954 -19.190471,28.5024 -35.162228,22.5948 z m 20.324729,-2.5594 c 23.250937,-11.8617 15.1028,-47.115 -10.925877,-47.2713 -29.696769,-0.1783 -34.603101,40.0136 -6.026348,49.3668 3.713195,1.2154 12.620684,0.1143 16.952225,-2.0955 z m -14.720134,-2.7389 c 1.50265,-0.2282 4.20265,-0.2328 6,-0.01 1.79735,0.2226 0.567909,0.4092 -2.732091,0.4149 -3.3,0.01 -4.770559,-0.1765 -3.267909,-0.4047 z m -10.732091,-5.2855 c -1.5808,-1.65 -2.649182,-3 -2.374182,-3 0.275,0 1.793382,1.35 3.374182,3 1.5808,1.65 2.649182,3 2.374182,3 -0.275,0 -1.793382,-1.35 -3.374182,-3 z m 28,0 c 0.995486,-1.1 2.034975,-2 2.309975,-2 0.275,0 -0.314489,0.9 -1.309975,2 -0.995486,1.1 -2.034975,2 -2.309975,2 -0.275,0 0.314489,-0.9 1.309975,-2 z m -32.041119,-5.0665 c -0.362533,-0.5866 -0.444683,-1.281 -0.182555,-1.5431 0.262128,-0.2622 0.743066,0.2178 1.068751,1.0665 0.676184,1.7621 0.09985,2.0721 -0.886196,0.4766 z m 37.773122,-6.9335 c 0,-1.925 0.205795,-2.7125 0.457323,-1.75 0.251527,0.9625 0.251527,2.5375 0,3.5 -0.251528,0.9625 -0.457323,0.175 -0.457323,-1.75 z m -0.153056,-5.4166 c -0.04342,-1.0542 0.192928,-1.6448 0.52522,-1.3125 0.332291,0.3322 0.367818,1.1947 0.07895,1.9166 -0.319226,0.7978 -0.556183,0.5608 -0.604167,-0.6041 z m -39,-1.383 c -0.08781,-1.4456 2.687465,-7.2004 3.472413,-7.2004 0.275,0 -0.124813,1.2375 -0.888474,2.75 -0.763661,1.5125 -1.639691,3.425 -1.946733,4.25 -0.375004,1.0076 -0.584174,1.0734 -0.637206,0.2004 z m 33.421053,-9.2004 c -1.5808,-1.65 -2.649182,-3 -2.374182,-3 0.275,0 1.793382,1.35 3.374182,3 1.5808,1.65 2.649182,3 2.374182,3 -0.275,0 -1.793382,-1.35 -3.374182,-3 z m -5.5,-4 c -0.901292,-0.5824 -1.024633,-0.9755 -0.309017,-0.9847 0.655041,-0.01 1.469098,0.4347 1.809017,0.9847 0.767305,1.2415 0.421123,1.2415 -1.5,0 z m -14.729167,-1.6041 c 0.332292,-0.3323 1.194792,-0.3679 1.916667,-0.079 0.797733,0.3192 0.560776,0.5562 -0.604167,0.6042 -1.054166,0.043 -1.644791,-0.193 -1.3125,-0.5252 z"
       id="path3328"
       style="fill:#0e6e8d" />
    <path
       d="m -2.925358,1057.1618 c -1.1,-0.2646 -2.45,-0.9537 -3,-1.5312 -0.691929,-0.7266 -0.383857,-0.8105 1,-0.2724 1.1,0.4277 4.253531,0.9906 7.007848,1.2509 28.887519,2.7297 38.286285,-38.2128 11.165975,-48.6407 -2.845603,-1.0942 -4.273823,-2.0086 -3.173823,-2.0321 3.13232,-0.067 12.096266,5.5426 15.054306,9.4208 15.208336,19.9392 -3.438556,47.7255 -28.054306,41.8047 z m -8.270677,-4.2886 c -8.534393,-5.2034 -14.294335,-25.5316 -8.725571,-30.7946 0.409587,-0.3871 0.394897,0.4212 -0.03264,1.7962 -2.791764,8.9785 0.401332,19.9018 7.748722,26.5078 5.587578,5.0237 5.726581,5.3666 1.009494,2.4906 z m -6.424804,-35.6331 c 2.630809,-4.9157 12.445167,-11.4703 16.913362,-11.2956 0.980166,0.038 -0.414711,0.7442 -3.099725,1.5687 -3.455199,1.061 -6.350446,3.0068 -9.907267,6.6584 -2.763983,2.8377 -4.52185,4.2185 -3.90637,3.0685 z m 20.945481,-12.0276 c 0.6875,-0.2774 1.8125,-0.2774 2.5,0 0.6875,0.2775 0.125,0.5044 -1.25,0.5044 -1.375,0 -1.9375,-0.2269 -1.25,-0.5044 z"
       id="path3326"
       style="fill:#115e76" />
  </g>
</svg>
