<?xml version="1.0" encoding="UTF-8" standalone="no"?>
<!-- Created with Inkscape (http://www.inkscape.org/) -->
<svg
   xmlns:svg="http://www.w3.org/2000/svg"
   xmlns="http://www.w3.org/2000/svg"
   version="1.0"
   width="128"
   height="128"
   id="svg2537">
  <defs
     id="defs2539" />
  <g
     id="layer1">
    <g
       transform="matrix(0.259159,0,0,0.259159,-25.627068,-46.269462)"
       id="g2557">
      <g
         transform="translate(-1.282583,24.39476)"
         id="g2521">
        <path
           d="M 148.11631,590.29994 C 140.85904,588.07115 132.3682,583.17134 129.24779,579.41147 C 124.37763,573.54329 124.96668,571.4479 133.40798,564.61254 C 138.81649,560.233 146.61053,556.64973 150.72805,556.64973 C 158.61325,556.64973 164.80802,543.42297 163.58542,529.19735 C 162.83672,520.48582 139.21708,483.93787 132.56336,481.19523 C 130.50286,480.3459 122.34924,473.97223 114.44421,467.03153 C 99.467147,453.88149 95.34964,436.3576 104.97522,426.73202 C 107.67231,424.03493 110.43359,416.52776 111.1114,410.04942 C 111.78921,403.57107 116.96874,394.2713 122.62145,389.38326 C 128.27417,384.49521 134.20005,376.39704 135.79008,371.38731 C 139.62712,359.29786 160.48632,348.803 173.95769,352.1841 C 187.09951,355.48249 205.65751,376.88336 205.65751,388.73995 C 205.65751,393.59467 207.03143,396.19278 208.71067,394.51353 C 210.38992,392.83429 211.91488,375.72441 212.09948,356.49156 C 212.51652,313.04128 225.96507,281.82959 254.2603,258.64378 C 264.41523,250.32257 273.31343,239.37321 274.03407,234.31187 C 274.84487,228.61729 278.84252,224.61125 284.52143,223.8025 C 290.32572,222.9759 295.33196,217.80994 298.14291,209.74646 C 301.24092,200.8595 304.85799,197.46498 310.08301,198.54099 C 316.06302,199.77247 317.34975,203.68232 316.44626,217.87633 C 314.97251,241.02931 321.37809,240.50713 331.94775,216.61266 C 340.9299,196.30704 350.91112,189.17733 359.01325,197.27946 C 362.82088,201.08709 362.26155,205.24235 356.61763,215.0763 C 352.56795,222.13246 349.25458,229.40522 349.25458,231.23798 C 349.25458,233.07074 357.83818,236.97353 368.32924,239.91085 C 394.12314,247.1327 423.55251,266.41647 433.33882,282.50877 C 437.7632,289.78407 445.8365,297.95633 451.27948,300.66933 C 465.92762,307.97054 473.40803,326.15328 468.06691,341.47481 C 462.71728,356.8208 469.06017,358.00551 489.58198,345.49335 C 508.87051,333.73313 521.23813,334.87674 535.08608,349.70101 C 541.5958,356.66969 550.80303,362.37134 555.54659,362.37134 C 564.90426,362.37134 577.32051,376.98406 577.32051,387.99716 C 577.32051,391.76607 581.12161,398.28967 585.76739,402.49405 C 605.33114,420.19901 587.9371,459.35691 535.70722,515.19084 C 521.42823,530.45512 509.74542,545.64606 509.74542,548.94847 C 509.74542,552.25088 516.39734,557.35821 524.52747,560.29811 C 541.87154,566.5698 544.29107,578.85586 529.80677,587.10568 C 516.33599,594.77823 422.44244,594.5413 408.83945,586.80042 C 395.32616,579.11059 276.75341,578.8663 258.45055,586.49058 C 242.60761,593.09015 165.83271,595.74086 148.11631,590.29994 z M 288.96971,342.35649 C 283.29095,334.9716 277.45604,339.89017 277.45604,352.06199 C 277.45604,361.93448 277.78525,362.05814 285.22482,354.98031 C 290.49675,349.96472 291.70034,345.9075 288.96971,342.35649 z M 372.41824,325.77971 C 366.75903,317.14266 364.43483,316.04491 361.52724,320.63574 C 356.08064,329.23543 356.89019,332.80724 364.28588,332.80724 C 368.18749,332.80724 369.64244,334.79396 367.85677,337.68324 C 365.98967,340.70427 366.69821,341.4128 369.71924,339.54571 C 372.42796,337.87162 374.74344,338.98949 374.92866,342.06073 C 375.19523,346.48058 375.69835,346.50342 377.43745,342.17465 C 378.6339,339.1966 376.37525,331.81888 372.41824,325.77971 z M 270.57756,303.22776 C 286.39929,288.05474 265.43482,279.74162 247.65553,294.13841 C 235.17495,304.24458 239.01296,317.87389 253.15044,313.65158 C 258.38839,312.08721 266.2306,307.39649 270.57756,303.22776 z"
           id="path2535"
           style="fill:#f8e8d3" />
        <path
           d="M 151.34146,590.7042 C 143.53512,588.71616 134.19564,584.1371 130.58705,580.52851 C 121.81291,571.75438 129.66105,562.04346 148.3615,558.53524 C 155.87107,557.12643 162.27667,553.75018 162.59615,551.03245 C 162.91564,548.31472 163.99258,541.07174 164.98935,534.93695 C 167.10735,521.90136 138.76992,478.5322 125.35181,474.27345 C 105.3482,467.92456 93.16783,436.71019 106.40659,425.72299 C 109.89094,422.83124 112.74176,415.41956 112.74176,409.25257 C 112.74176,402.47803 117.33894,393.72642 124.35623,387.14221 C 130.74419,381.14849 139.38539,371.22252 143.55889,365.0845 C 149.57211,356.24081 154.54897,353.92445 167.53715,353.92445 C 185.97701,353.92445 200.10807,367.35581 204.43619,388.99642 C 208.69298,410.28038 213.85359,392.10793 213.6383,356.59231 C 213.46224,327.54941 215.13109,319.91943 226.87884,296.05635 C 235.901,277.72975 245.63474,265.04857 256.48195,257.48922 C 266.5148,250.4974 273.15523,242.22285 273.99369,235.66804 C 274.92642,228.37636 277.95715,225.10943 283.78889,225.10943 C 288.94779,225.10943 294.69929,220.17957 298.57094,212.4391 C 308.33149,192.92515 317.8769,195.77755 316.23789,217.71841 C 314.49401,241.06307 320.81084,240.52158 332.52556,216.3222 C 342.55343,195.60741 351.11028,189.37649 358.87148,197.13769 C 362.49009,200.75631 361.89087,205.02118 356.47587,214.18805 C 352.50416,220.91162 349.25458,228.27641 349.25458,230.55425 C 349.25458,232.83208 359.11725,237.92168 371.17162,241.86447 C 398.4711,250.79368 425.67189,269.19318 433.67221,284.14191 C 437.02044,290.39814 445.02609,298.24013 451.46254,301.56855 C 464.2822,308.19785 469.46503,321.80215 466.60216,341.30818 C 464.35456,356.62204 471.93518,357.93146 490.73992,345.47757 C 508.52767,333.69721 521.26991,334.91076 535.08608,349.70101 C 541.5958,356.66969 549.96054,362.37134 553.67434,362.37134 C 563.54402,362.37134 577.32051,377.77347 577.32051,388.80779 C 577.32051,394.05625 581.35052,400.86724 586.27607,403.9433 C 606.483,416.56274 587.54694,458.05199 535.46483,515.27177 C 503.11678,550.81081 502.15712,554.30456 523.02599,560.55702 C 536.74488,564.6673 539.59012,567.29232 538.51492,574.84718 C 537.492,582.03482 532.4808,585.33427 516.08058,589.6183 C 491.29052,596.0939 429.45755,593.98744 410.4945,586.02129 C 391.33397,577.97219 274.85982,577.68243 258.45055,585.64305 C 243.69905,592.79943 172.73553,596.15262 151.34146,590.7042 z M 255.80133,578.209 C 267.06172,572.00913 403.3245,568.92253 405.29025,574.8228 C 410.34953,590.00837 530.86263,588.78061 530.86263,573.5435 C 530.86263,569.72516 504.63486,560.94137 493.10028,560.89673 C 488.78105,560.88001 489.39228,559.13395 495.20536,554.88332 C 506.87704,546.34878 501.33558,543.4839 482.96636,548.55589 C 464.86087,553.55506 452.37592,550.77141 439.30898,538.82202 L 430.11247,530.41205 L 416.08004,541.00442 C 395.83295,556.28793 377.66469,559.64215 332.3608,556.46069 C 298.35388,554.07254 289.01768,551.72969 271.11049,541.09036 C 245.27135,525.73837 221.84802,526.23378 211.28452,542.35571 C 204.03045,553.42683 193.06961,555.18692 180.45162,547.30686 C 169.41588,540.41493 164.01499,546.67381 174.29,554.44733 C 182.29353,560.50236 182.28841,560.60716 173.98169,560.76241 C 160.0896,561.02205 133.85898,569.42866 133.85898,573.62127 C 133.85898,585.96889 234.80957,589.76687 255.80133,578.209 z M 417.55297,520.09588 C 421.80094,516.25152 425.27655,508.64932 425.27655,503.20211 C 425.27655,497.7549 427.77537,493.29808 430.82949,493.29808 C 433.8836,493.29808 439.58525,486.58168 443.49982,478.37274 C 452.4272,459.65182 452.41567,459.51054 441.96059,459.51054 C 429.42337,459.51054 410.47756,470.29719 400.30881,483.22466 C 391.8962,493.91955 388.33041,518.29578 394.30464,524.27 C 399.21608,529.18144 409.56713,527.32297 417.55297,520.09588 z M 275.71254,508.1109 C 288.97832,487.86475 271.22272,459.51054 245.27866,459.51054 C 231.8464,459.51054 231.66201,459.76927 235.51643,473.20884 C 237.67718,480.74291 239.50828,492.62135 239.58556,499.60536 L 239.72608,512.30358 L 247.65358,502.80083 C 258.05752,490.32955 259.46668,490.79518 257.23972,505.96841 C 254.87048,522.11108 265.71514,523.36886 275.71254,508.1109 z M 123.67371,435.24712 C 119.06002,430.63344 115.89635,437.97064 119.20878,445.6022 C 122.34966,452.8385 122.57734,452.8319 124.32732,445.45378 C 125.33462,441.20691 125.04049,436.61391 123.67371,435.24712 z M 439.55032,445.21305 C 452.66578,439.73306 471.73443,415.95634 471.73443,405.08266 C 471.73443,393.03579 423.93894,417.51178 418.18551,432.50497 C 415.80421,438.71057 419.12061,451.06365 423.16793,451.06365 C 424.47689,451.06365 431.84896,448.43088 439.55032,445.21305 z M 165.62639,414.37483 C 170.94822,403.1599 171.81446,395.92817 169.00808,386.14291 C 164.22536,369.46654 152.04706,366.30246 148.41057,380.7914 C 145.34804,392.99349 149.66424,410.00046 154.98843,406.70993 C 156.98358,405.47686 159.62999,406.10871 160.86935,408.11403 C 162.10871,410.11936 157.48866,417.15785 150.60257,423.75514 C 135.50438,438.22014 134.15866,445.38243 148.27716,436.13163 C 153.88427,432.45771 161.69143,422.66715 165.62639,414.37483 z M 393.93219,427.76465 C 416.3415,414.02912 429.79352,393.03519 430.42539,370.81144 C 430.62818,363.67902 433.82889,356.06916 437.53807,353.90064 C 443.33106,350.51385 443.09093,349.92165 435.83516,349.70101 C 428.50919,349.47824 428.29406,348.91487 434.21399,345.45564 C 442.96081,340.34456 439.72959,320.30579 430.0635,319.71592 C 426.08444,319.47309 427.63338,317.86384 433.72344,315.91346 C 443.70227,312.71769 443.52391,312.50889 430.47539,312.11101 C 418.24439,311.73807 416.9475,310.57936 419.11137,301.95778 C 423.25805,285.43611 396.17612,263.06474 360.00029,253.12832 C 340.55444,247.78713 336.74977,251.0208 336.64892,272.97512 C 336.60564,282.39579 334.83769,286.43723 331.30494,285.19117 C 328.04126,284.04002 326.33093,276.64941 326.82526,265.83372 C 327.50974,250.85748 326.40204,248.33837 319.13223,248.33837 C 311.62571,248.33837 310.79726,250.6678 311.99745,268.39973 C 313.79844,295.00804 305.9419,298.03434 301.03299,272.62317 C 297.32305,253.41846 293.29363,248.2437 288.31813,256.29421 C 287.04943,258.34703 288.81724,269.27519 292.24661,280.57901 C 295.67598,291.88283 298.5024,301.60655 298.52754,302.18727 C 298.55269,302.768 295.96584,303.24313 292.779,303.24313 C 289.39641,303.24313 284.44635,294.11843 280.88599,281.32012 L 274.78723,259.39709 L 257.19707,277.52255 C 230.68944,304.83686 223.92084,340.07003 238.86849,372.92995 C 243.09513,382.22152 249.70531,392.43212 253.55778,395.62017 C 257.41025,398.80821 260.56227,403.70343 260.56227,406.49843 C 260.56227,413.81705 277.24817,428.42483 294.37997,436.10434 C 304.52638,440.65258 319.12441,442.37175 341.13915,441.61104 C 368.20835,440.67568 376.35326,438.53945 393.93219,427.76465 z M 312.29945,415.20418 C 300.63626,406.79201 299.99923,393.7298 310.96593,387.8606 C 322.47151,381.70299 323.35057,381.99219 336.75909,396.34605 C 347.24529,407.57157 349.83891,408.53588 357.19279,403.9433 C 361.82544,401.05016 367.50753,394.78915 369.81967,390.02994 L 374.02355,381.37684 L 374.30939,390.14338 C 375.02582,412.11536 332.08043,429.47138 312.29945,415.20418 z M 269.00916,389.82372 C 274.74697,382.91007 285.90293,381.21719 285.90293,387.26014 C 285.90293,391.14828 275.9049,396.15889 268.14659,396.15889 C 265.48537,396.15889 265.82566,393.65959 269.00916,389.82372 z M 277.99826,373.58328 C 263.37101,355.95852 272.27627,321.03613 288.82315,331.133 C 300.23626,338.09726 305.24021,355.76075 299.41926,368.53634 C 294.04673,380.32777 285.30501,382.38737 277.99826,373.58328 z M 291.92379,355.33227 C 294.95463,347.43404 290.03534,336.36235 284.32671,338.23375 C 276.73149,340.7236 275.90349,360.96353 283.39685,360.96353 C 286.89817,360.96353 290.73529,358.42946 291.92379,355.33227 z M 385.15384,358.1479 C 386.58947,355.825 391.56517,353.92445 396.21096,353.92445 C 400.85675,353.92445 403.48324,355.825 402.04762,358.1479 C 400.61199,360.47079 395.63629,362.37134 390.9905,362.37134 C 386.34471,362.37134 383.71821,360.47079 385.15384,358.1479 z M 360.33887,350.28189 C 352.73666,341.88154 349.9041,320.88959 355.21358,312.29867 C 364.48614,297.29535 384.46639,319.20644 382.27615,341.97649 C 380.6846,358.52242 371.08539,362.15666 360.33887,350.28189 z M 372.64764,326.12983 C 365.14391,314.67768 357.70146,315.95775 357.70146,328.7005 C 357.70146,334.48765 359.68647,336.00386 364.72946,334.06868 C 369.83244,332.11048 370.81053,332.90395 368.30035,336.96551 C 366.00011,340.68736 366.47493,341.5508 369.71924,339.54571 C 372.6784,337.71684 374.78783,339.53568 375.08516,344.17245 C 375.55459,351.49318 375.65754,351.49492 377.54656,344.21404 C 378.63086,340.03477 376.42635,331.89687 372.64764,326.12983 z M 140.90422,407.04498 C 139.49804,403.38053 136.5154,400.38233 134.27614,400.38233 C 128.84929,400.38233 124.11222,415.97948 127.75093,421.86704 C 132.03737,428.80264 144.05622,415.25896 140.90422,407.04498 z M 544.12095,417.13559 C 538.63706,412.56709 531.21546,408.82922 527.62845,408.82922 C 522.12242,408.82922 522.29725,410.14489 528.75091,417.2761 C 532.95531,421.92189 540.37691,425.65976 545.24341,425.58248 C 553.85789,425.44568 553.82824,425.2226 544.12095,417.13559 z M 577.32051,417.2761 C 577.32051,414.95321 575.53213,413.05266 573.34633,413.05266 C 571.16053,413.05266 568.19753,414.95321 566.7619,417.2761 C 565.32627,419.599 567.11464,421.49955 570.73607,421.49955 C 574.35751,421.49955 577.32051,419.599 577.32051,417.2761 z M 516.5453,389.74296 C 531.08128,375.20697 529.28585,356.58568 513.16884,354.72447 C 497.37798,352.90093 484.40476,366.82658 484.40476,385.60028 C 484.40476,398.62256 485.68459,400.38233 495.15534,400.38233 C 501.06816,400.38233 510.69364,395.59461 516.5453,389.74296 z M 558.31501,382.97342 C 558.31501,379.7724 554.51391,377.15339 549.86813,377.15339 C 543.66566,377.15339 541.04692,380.43859 540.01255,389.51729 C 538.63664,401.593 538.83354,401.72865 548.45944,395.33731 C 553.87998,391.73818 558.31501,386.17443 558.31501,382.97342 z M 475.95787,377.00479 C 475.95787,369.47255 473.66387,366.59478 467.65958,366.59478 C 456.52417,366.59478 448.2507,381.88331 454.99106,390.00495 C 462.19611,398.6865 475.95787,390.15373 475.95787,377.00479 z"
           id="path2533"
           style="fill:#eed6b5" />
        <path
           d="M 155.2063,590.3209 C 134.9766,586.06652 122.71538,577.10027 127.20138,569.84176 C 128.7352,567.35999 137.39013,563.11235 146.43456,560.40258 C 160.89117,556.07127 163.20237,553.56149 165.5544,539.63997 C 167.91009,525.69673 166.24945,521.18769 151.65879,501.9101 C 142.54471,489.86832 129.07087,476.35689 121.7169,471.88468 C 102.10147,459.95582 96.435407,445.00375 105.52726,429.16212 C 109.49523,422.24832 112.74176,413.01002 112.74176,408.63257 C 112.74176,404.25512 117.96827,395.05218 124.35623,388.18159 C 130.74419,381.311 139.38539,370.79245 143.55889,364.80703 C 159.59834,341.80414 197.93773,356.50411 204.2525,388.07798 C 208.93071,411.46901 215.97473,389.33671 214.61431,355.52122 C 213.05648,316.79872 224.05693,289.77452 252.02683,263.61196 C 263.09291,253.26093 273.40942,239.76194 274.95241,233.61419 C 276.84172,226.08656 280.11293,222.89002 284.96986,223.82538 C 289.55765,224.70891 294.49727,220.58488 298.54515,212.49153 C 310.38376,188.82136 322.51483,199.69364 313.80207,226.1653 C 311.30798,233.74299 312.27131,235.66804 318.55743,235.66804 C 323.66875,235.66804 328.24295,230.6834 331.56688,221.49124 C 338.41863,202.54306 351.95198,190.21819 358.60307,196.86928 C 362.35471,200.62093 361.28742,205.78224 354.12458,218.5268 L 344.72064,235.25886 L 362.80177,240.1276 C 391.00757,247.72263 408.86277,258.4071 430.48103,280.62652 C 441.4536,291.90421 454.49624,304.67951 459.4647,309.01607 C 466.89217,315.49891 468.12727,320.19195 466.41169,335.41259 C 464.54952,351.93377 465.25547,353.92445 472.97653,353.92445 C 477.7348,353.92445 485.19806,350.69352 489.56157,346.7446 C 502.21141,335.29665 526.07194,337.42682 536.8693,350.96804 C 541.87028,357.23986 549.08079,362.37134 552.8927,362.37134 C 562.1934,362.37134 572.47271,373.19532 575.81371,386.50689 C 577.31485,392.48789 582.06909,400.90746 586.37865,405.21705 C 596.13455,414.97292 596.12404,423.23794 586.32839,444.72848 C 578.23539,462.48368 535.68276,517.76208 516.67466,535.21286 C 502.43253,548.28814 502.55786,554.99007 517.11282,558.64314 C 542.40496,564.99106 546.32597,578.00506 525.58333,586.75731 C 504.77254,595.53831 427.22957,594.40983 408.78976,585.05762 C 388.46417,574.74899 277.03992,574.40808 256.62563,584.59207 C 240.29185,592.74044 182.29022,596.01675 155.2063,590.3209 z M 253.65401,579.85265 C 270.95991,570.827 392.44999,570.84671 414.06651,579.87867 C 441.56902,591.36995 535.08608,586.4745 535.08608,573.5435 C 535.08608,569.0171 511.26576,560.90569 497.50071,560.74474 C 488.00154,560.63368 487.51574,560.0343 493.9075,556.31144 C 507.92127,548.14917 501.22131,544.95828 474.56231,547.09821 C 449.54643,549.10624 447.26748,548.53419 439.14469,538.20774 C 431.42904,528.39887 429.85387,527.90546 424.98489,533.77223 C 421.97176,537.40283 411.96981,544.21824 402.75835,548.91757 C 388.01403,556.43957 380.51179,557.20024 340.05297,555.27551 C 298.64438,553.30559 291.80726,551.79769 270.97476,540.04055 C 243.06913,524.29159 218.802,525.19855 209.63182,542.33319 C 203.43464,553.91272 188.33083,555.74738 180.16829,545.91212 C 176.41757,541.39278 173.41387,540.74611 170.35958,543.8004 C 167.30529,546.8547 167.5618,549.8075 171.19723,553.44293 C 175.36838,557.61408 172.30989,559.55865 156.20401,562.97552 C 133.84776,567.7184 128.96075,577.54794 146.5293,582.43484 C 167.51255,588.27159 240.90344,586.50253 253.65401,579.85265 z M 203.01786,544.83361 C 206.23058,539.63532 200.31823,532.75835 189.8196,529.48198 C 182.83643,527.30271 180.31685,528.21595 180.31685,532.92632 C 180.31685,542.58854 198.5082,552.13039 203.01786,544.83361 z M 502.55134,526.77693 C 531.34258,507.7064 573.66845,454.24797 579.21717,429.94643 C 580.54312,424.1392 579.85339,416.65921 577.68444,413.32424 C 574.34775,408.19385 572.67544,408.14486 566.8182,413.00592 C 560.62253,418.14788 560.1933,417.56499 562.73075,407.45504 C 569.52445,380.38674 548.68497,360.94103 539.30952,385.60028 C 534.01712,399.52033 533.03331,398.93446 532.66921,381.64586 C 532.28209,363.26439 524.55855,353.92445 509.74542,353.92445 C 493.46316,353.92445 487.2962,363.42249 484.0942,393.43115 C 482.32733,409.99005 475.11896,433.14994 464.18466,457.39881 C 442.76083,504.91022 438.93505,523.247 448.45904,532.77099 C 459.35763,543.66959 480.6022,541.31544 502.55134,526.77693 z M 540.51844,415.62031 C 522.29474,406.50384 517.54064,400.38233 528.68427,400.38233 C 532.13199,400.38233 541.1596,406.02827 548.74562,412.92886 C 564.68257,427.42576 564.34081,427.53756 540.51844,415.62031 z M 418.8591,522.95312 C 423.01822,518.35734 426.71574,510.28001 427.07581,505.00348 C 427.43589,499.72696 429.70325,495.7763 432.1144,496.22424 C 434.52554,496.67217 440.72896,488.33069 445.89977,477.68761 L 455.30123,458.33657 L 438.37494,460.60686 C 415.34541,463.69577 396.91666,477.70442 391.87846,495.95127 C 383.89647,524.85965 401.33744,542.31433 418.8591,522.95312 z M 224.42352,513.47556 C 234.34319,499.31323 232.55715,488.52763 214.67239,454.59033 C 205.69321,437.55184 197.03217,414.6362 195.42562,403.66667 C 189.44469,362.82875 146.5293,351.53988 146.5293,390.80451 C 146.5293,401.26564 148.81683,405.72418 155.44139,408.17476 C 164.27244,411.44158 164.25963,411.53305 154.03334,418.23358 C 148.35726,421.95269 140.58899,431.33605 136.77053,439.08548 C 130.88905,451.02173 129.81317,451.72287 129.7317,443.67262 C 129.67514,438.08411 127.02604,434.16988 123.30037,434.16988 C 119.81603,434.16988 116.9652,437.34619 116.9652,441.22834 C 116.9652,449.40982 128.79935,463.73048 135.56942,463.74153 C 138.11301,463.74569 145.56527,472.2509 152.12998,482.642 C 176.43404,521.11224 209.26638,535.1154 224.42352,513.47556 z M 275.10484,513.47556 C 291.9262,489.45969 274.64442,459.51054 243.965,459.51054 C 227.48192,459.51054 227.10461,459.82832 231.1027,470.34409 C 233.3681,476.30254 235.22161,488.81449 235.22161,498.14842 C 235.22161,517.173 241.98785,518.53775 251.39913,501.41145 C 256.92712,491.35183 256.9817,491.40041 254.77202,504.41395 C 251.27736,524.99515 263.28725,530.34752 275.10484,513.47556 z M 382.94903,444.77566 C 394.20695,439.07084 407.6133,428.51146 412.74093,421.31036 C 423.14657,406.697 434.86705,371.86202 431.313,366.11145 C 430.04692,364.06288 433.46267,358.10707 438.90357,352.87631 C 444.34447,347.64555 446.92521,344.79126 444.63853,346.53343 C 438.03329,351.56583 432.89601,350.20922 436.64177,344.42171 C 442.14406,335.9202 440.57837,322.48416 433.72344,319.37789 C 429.06785,317.26824 429.81433,316.42846 436.53907,316.21031 C 441.572,316.04704 446.48176,317.33888 447.44963,319.08105 C 448.4175,320.82322 448.89869,320.36623 448.51894,318.06552 C 448.13918,315.76482 440.40001,311.79821 431.32077,309.25083 C 422.24154,306.70346 417.27416,303.79888 420.28214,302.79622 C 429.79893,299.62395 408.00227,272.94955 387.26557,262.39106 C 376.81254,257.06871 361.60815,252.20466 353.47802,251.58207 C 339.40313,250.50425 338.63105,251.15725 337.33899,265.23215 C 335.19111,288.62975 328.13736,290.89607 328.13736,268.18856 C 328.13736,249.69172 327.39809,248.33837 317.29414,248.33837 C 308.99013,248.33837 306.93825,250.06916 308.53195,255.7294 C 315.5678,280.71818 315.96801,290.57281 309.94699,290.57281 C 305.84713,290.57281 302.79307,284.15288 300.90574,271.56731 C 299.04658,259.16954 295.94309,252.56182 291.97931,252.56182 C 284.51021,252.56182 284.49838,262.36868 291.94233,283.22989 C 295.11119,292.11043 295.94753,300.14398 293.83884,301.44721 C 289.92511,303.86603 289.60585,303.26841 280.46253,276.4085 L 274.92204,260.13246 L 261.22179,271.66046 C 223.77083,303.17337 213.58107,371.90865 241.84003,402.40057 C 247.49148,408.49858 252.11538,415.88519 252.11538,418.81526 C 252.11538,428.80246 277.01849,448.03364 297.32245,453.72597 C 323.99491,461.20374 357.42569,457.70931 382.94903,444.77566 z M 316.4745,418.68631 C 308.62936,415.52573 302.44965,401.97757 305.37543,394.35312 C 309.31911,384.07605 327.40207,386.48341 338.82211,398.80583 C 348.70747,409.47232 349.51316,409.63126 359.73766,402.93191 C 365.58643,399.09965 370.37179,393.79067 370.37179,391.13417 C 370.37179,388.47768 371.47605,387.40844 372.8257,388.75809 C 377.31896,393.25135 366.06213,408.65689 353.56256,415.12067 C 341.35179,421.4351 326.77585,422.83643 316.4745,418.68631 z M 332.44551,402.59612 C 326.32957,395.22686 315.46703,393.96999 315.46703,400.63158 C 315.46703,403.09157 317.15224,404.06277 319.21193,402.78981 C 321.27162,401.51685 325.34355,403.35116 328.26066,406.86606 C 331.17777,410.38096 334.51476,412.30651 335.67621,411.14507 C 336.83766,409.98362 335.38384,406.13659 332.44551,402.59612 z M 282.61657,375.62082 C 273.98556,370.28656 268.96644,350.36326 273.34944,338.83509 C 278.63892,324.9227 290.22692,326.73681 297.86494,342.67302 C 307.06513,361.86858 296.67844,384.31154 282.61657,375.62082 z M 288.0686,370.90551 C 286.66264,368.63062 287.49393,363.06665 289.91592,358.54114 C 295.16159,348.73951 291.58175,337.03068 283.33935,337.03068 C 275.94201,337.03068 275.30546,362.75482 282.52417,369.97354 C 288.64856,376.09793 291.58248,376.5911 288.0686,370.90551 z M 360.05267,348.76127 C 351.52838,336.59113 351.44203,313.37503 359.90898,310.12595 C 375.64652,304.08689 390.84024,340.21352 377.97399,353.07977 C 370.81009,360.24367 367.544,359.45664 360.05267,348.76127 z M 374.73966,326.85194 C 369.6331,313.42065 360.46273,314.2489 358.40215,328.32751 C 357.62608,333.6299 358.7053,336.90878 360.80041,335.61394 C 362.89553,334.31908 367.33159,337.06096 370.65833,341.707 C 378.44408,352.58035 380.99354,343.30091 374.73966,326.85194 z M 449.95641,443.9325 C 463.92703,435.10843 476.71519,403.99938 475.14035,382.66892 C 473.70226,363.1906 467.73852,358.52371 457.4426,368.81963 C 447.69638,378.56586 448.97379,391.54706 460.11996,396.02728 C 467.53849,399.00916 467.98179,399.90563 462.14113,400.11462 C 458.02626,400.26186 447.37012,405.20625 438.4608,411.10216 C 399.7084,436.74728 410.86896,468.62076 449.95641,443.9325 z M 260.56227,446.84391 C 260.56227,445.23902 256.83776,440.55528 252.28557,436.43561 C 242.11506,427.23143 222.55075,430.65679 222.55234,441.64137 C 222.55317,447.42987 226.5101,449.03624 241.55783,449.35691 C 252.01028,449.57965 260.56227,448.44881 260.56227,446.84391 z M 144.05064,407.28422 C 142.50645,403.26011 138.17802,400.55792 134.43191,401.27935 C 126.81307,402.74661 123.32935,414.20363 127.3311,424.63203 C 129.67158,430.73122 130.90406,430.55499 138.41138,423.04767 C 143.72161,417.73744 145.81569,411.88386 144.05064,407.28422 z M 243.6685,417.79324 C 243.6685,415.75477 240.81767,411.72096 237.33333,408.82922 C 232.04051,404.43656 230.99817,405.04636 230.99817,412.53552 C 230.99817,417.68791 233.69197,421.49955 237.33333,421.49955 C 240.81767,421.49955 243.6685,419.83171 243.6685,417.79324 z"
           id="path2531"
           style="fill:#39b1c0" />
        <path
           d="M 155.2063,590.3209 C 134.9766,586.06652 122.71538,577.10027 127.20138,569.84176 C 128.7352,567.35999 137.39013,563.11235 146.43456,560.40258 C 160.89117,556.07127 163.20237,553.56149 165.5544,539.63997 C 167.91009,525.69673 166.24945,521.18769 151.65879,501.9101 C 142.54471,489.86832 129.07087,476.35689 121.7169,471.88468 C 102.10147,459.95582 96.435407,445.00375 105.52726,429.16212 C 109.49523,422.24832 112.74176,413.01002 112.74176,408.63257 C 112.74176,404.25512 117.96827,395.05218 124.35623,388.18159 C 130.74419,381.311 139.38539,370.79245 143.55889,364.80703 C 159.59834,341.80414 197.93773,356.50411 204.2525,388.07798 C 208.93071,411.46901 215.97473,389.33671 214.61431,355.52122 C 213.05648,316.79872 224.05693,289.77452 252.02683,263.61196 C 263.09291,253.26093 273.40942,239.76194 274.95241,233.61419 C 276.84172,226.08656 280.11293,222.89002 284.96986,223.82538 C 289.55765,224.70891 294.49727,220.58488 298.54515,212.49153 C 310.38376,188.82136 322.51483,199.69364 313.80207,226.1653 C 311.30798,233.74299 312.27131,235.66804 318.55743,235.66804 C 323.66875,235.66804 328.24295,230.6834 331.56688,221.49124 C 338.41863,202.54306 351.95198,190.21819 358.60307,196.86928 C 362.35471,200.62093 361.28742,205.78224 354.12458,218.5268 L 344.72064,235.25886 L 362.80177,240.1276 C 391.00757,247.72263 408.86277,258.4071 430.48103,280.62652 C 441.4536,291.90421 454.49624,304.67951 459.4647,309.01607 C 466.89217,315.49891 468.12727,320.19195 466.41169,335.41259 C 464.54952,351.93377 465.25547,353.92445 472.97653,353.92445 C 477.7348,353.92445 485.19806,350.69352 489.56157,346.7446 C 502.21141,335.29665 526.07194,337.42682 536.8693,350.96804 C 541.87028,357.23986 549.08079,362.37134 552.8927,362.37134 C 562.1934,362.37134 572.47271,373.19532 575.81371,386.50689 C 577.31485,392.48789 582.06909,400.90746 586.37865,405.21705 C 596.13455,414.97292 596.12404,423.23794 586.32839,444.72848 C 578.23539,462.48368 535.68276,517.76208 516.67466,535.21286 C 502.43253,548.28814 502.55786,554.99007 517.11282,558.64314 C 542.40496,564.99106 546.32597,578.00506 525.58333,586.75731 C 504.77254,595.53831 427.22957,594.40983 408.78976,585.05762 C 388.46417,574.74899 277.03992,574.40808 256.62563,584.59207 C 240.29185,592.74044 182.29022,596.01675 155.2063,590.3209 z M 253.65401,579.85265 C 270.95991,570.827 392.44999,570.84671 414.06651,579.87867 C 441.56902,591.36995 535.08608,586.4745 535.08608,573.5435 C 535.08608,569.0171 511.26576,560.90569 497.50071,560.74474 C 488.00154,560.63368 487.51574,560.0343 493.9075,556.31144 C 507.92127,548.14917 501.22131,544.95828 474.56231,547.09821 C 449.54643,549.10624 447.26748,548.53419 439.14469,538.20774 C 431.42904,528.39887 429.85387,527.90546 424.98489,533.77223 C 421.97176,537.40283 411.96981,544.21824 402.75835,548.91757 C 388.01403,556.43957 380.51179,557.20024 340.05297,555.27551 C 298.64438,553.30559 291.80726,551.79769 270.97476,540.04055 C 243.06913,524.29159 218.802,525.19855 209.63182,542.33319 C 203.43464,553.91272 188.33083,555.74738 180.16829,545.91212 C 176.41757,541.39278 173.41387,540.74611 170.35958,543.8004 C 167.30529,546.8547 167.5618,549.8075 171.19723,553.44293 C 175.36838,557.61408 172.30989,559.55865 156.20401,562.97552 C 133.84776,567.7184 128.96075,577.54794 146.5293,582.43484 C 167.51255,588.27159 240.90344,586.50253 253.65401,579.85265 z M 203.01786,544.83361 C 206.23058,539.63532 200.31823,532.75835 189.8196,529.48198 C 182.83643,527.30271 180.31685,528.21595 180.31685,532.92632 C 180.31685,542.58854 198.5082,552.13039 203.01786,544.83361 z M 502.55134,526.77693 C 531.34258,507.7064 573.66845,454.24797 579.21717,429.94643 C 580.54312,424.1392 579.85339,416.65921 577.68444,413.32424 C 574.34775,408.19385 572.67544,408.14486 566.8182,413.00592 C 560.62253,418.14788 560.1933,417.56499 562.73075,407.45504 C 569.52445,380.38674 548.68497,360.94103 539.30952,385.60028 C 534.01712,399.52033 533.03331,398.93446 532.66921,381.64586 C 532.28209,363.26439 524.55855,353.92445 509.74542,353.92445 C 493.46316,353.92445 487.2962,363.42249 484.0942,393.43115 C 482.32733,409.99005 475.11896,433.14994 464.18466,457.39881 C 442.76083,504.91022 438.93505,523.247 448.45904,532.77099 C 459.35763,543.66959 480.6022,541.31544 502.55134,526.77693 z M 540.51844,415.62031 C 522.29474,406.50384 517.54064,400.38233 528.68427,400.38233 C 532.13199,400.38233 541.1596,406.02827 548.74562,412.92886 C 564.68257,427.42576 564.34081,427.53756 540.51844,415.62031 z M 418.8591,522.95312 C 423.01822,518.35734 426.71574,510.28001 427.07581,505.00348 C 427.43589,499.72696 429.70325,495.7763 432.1144,496.22424 C 434.52554,496.67217 440.72896,488.33069 445.89977,477.68761 L 455.30123,458.33657 L 438.37494,460.60686 C 415.34541,463.69577 396.91666,477.70442 391.87846,495.95127 C 383.89647,524.85965 401.33744,542.31433 418.8591,522.95312 z M 224.42352,513.47556 C 234.34319,499.31323 232.55715,488.52763 214.67239,454.59033 C 205.69321,437.55184 197.03217,414.6362 195.42562,403.66667 C 189.44469,362.82875 146.5293,351.53988 146.5293,390.80451 C 146.5293,401.26564 148.81683,405.72418 155.44139,408.17476 C 164.27244,411.44158 164.25963,411.53305 154.03334,418.23358 C 148.35726,421.95269 140.58899,431.33605 136.77053,439.08548 C 130.88905,451.02173 129.81317,451.72287 129.7317,443.67262 C 129.67514,438.08411 127.02604,434.16988 123.30037,434.16988 C 119.81603,434.16988 116.9652,437.34619 116.9652,441.22834 C 116.9652,449.40982 128.79935,463.73048 135.56942,463.74153 C 138.11301,463.74569 145.56527,472.2509 152.12998,482.642 C 176.43404,521.11224 209.26638,535.1154 224.42352,513.47556 z M 275.10484,513.47556 C 291.9262,489.45969 274.64442,459.51054 243.965,459.51054 C 227.48192,459.51054 227.10461,459.82832 231.1027,470.34409 C 233.3681,476.30254 235.22161,488.81449 235.22161,498.14842 C 235.22161,517.173 241.98785,518.53775 251.39913,501.41145 C 256.92712,491.35183 256.9817,491.40041 254.77202,504.41395 C 251.27736,524.99515 263.28725,530.34752 275.10484,513.47556 z M 309.1342,505.9578 C 313.26871,487.13349 291.13504,454.77544 274.56611,455.42141 C 272.67124,455.49529 274.12355,457.87097 277.79349,460.70071 C 282.45863,464.29782 284.59526,473.46949 284.89541,491.18636 C 285.13153,505.12372 285.45481,517.00216 285.61382,517.58288 C 285.77283,518.1636 290.50329,518.63874 296.12596,518.63874 C 304.05275,518.63874 306.9746,515.7904 309.1342,505.9578 z M 350.08701,513.35944 C 356.03926,508.64846 369.38842,464.66448 365.56843,462.34991 C 364.72594,461.83944 350.31441,462.09575 333.5428,462.9195 L 303.04898,464.41723 L 311.90538,476.39615 C 318.79719,485.71783 320.13206,491.73172 317.92303,503.50691 C 315.12462,518.42372 315.28558,518.63874 329.25048,518.63874 C 337.04189,518.63874 346.41833,516.26305 350.08701,513.35944 z M 385.26388,488.86185 C 388.50242,482.59921 390.0633,476.38642 388.73253,475.05564 C 387.40175,473.72486 392.2221,469.04246 399.44441,464.65031 C 414.08073,455.74943 412.72924,451.06365 395.52568,451.06365 C 381.69901,451.06365 376.5795,456.88336 373.23394,476.40431 C 371.84057,484.53444 369.34672,495.93773 367.69204,501.74497 C 364.94478,511.38672 365.32143,511.78017 372.02959,506.27602 C 376.06991,502.96086 382.02535,495.12448 385.26388,488.86185 z M 382.94903,444.77566 C 394.20695,439.07084 407.6133,428.51146 412.74093,421.31036 C 423.14657,406.697 434.86705,371.86202 431.313,366.11145 C 430.04692,364.06288 433.46267,358.10707 438.90357,352.87631 C 444.34447,347.64555 446.92521,344.79126 444.63853,346.53343 C 438.03329,351.56583 432.89601,350.20922 436.64177,344.42171 C 442.14406,335.9202 440.57837,322.48416 433.72344,319.37789 C 429.06785,317.26824 429.81433,316.42846 436.53907,316.21031 C 441.572,316.04704 446.48176,317.33888 447.44963,319.08105 C 448.4175,320.82322 448.89869,320.36623 448.51894,318.06552 C 448.13918,315.76482 440.40001,311.79821 431.32077,309.25083 C 422.24154,306.70346 417.27416,303.79888 420.28214,302.79622 C 429.79893,299.62395 408.00227,272.94955 387.26557,262.39106 C 376.81254,257.06871 361.60815,252.20466 353.47802,251.58207 C 339.40313,250.50425 338.63105,251.15725 337.33899,265.23215 C 335.19111,288.62975 328.13736,290.89607 328.13736,268.18856 C 328.13736,249.69172 327.39809,248.33837 317.29414,248.33837 C 308.99013,248.33837 306.93825,250.06916 308.53195,255.7294 C 315.5678,280.71818 315.96801,290.57281 309.94699,290.57281 C 305.84713,290.57281 302.79307,284.15288 300.90574,271.56731 C 299.04658,259.16954 295.94309,252.56182 291.97931,252.56182 C 284.51021,252.56182 284.49838,262.36868 291.94233,283.22989 C 295.11119,292.11043 295.94753,300.14398 293.83884,301.44721 C 289.92511,303.86603 289.60585,303.26841 280.46253,276.4085 L 274.92204,260.13246 L 261.22179,271.66046 C 223.77083,303.17337 213.58107,371.90865 241.84003,402.40057 C 247.49148,408.49858 252.11538,415.88519 252.11538,418.81526 C 252.11538,428.80246 277.01849,448.03364 297.32245,453.72597 C 323.99491,461.20374 357.42569,457.70931 382.94903,444.77566 z M 316.4745,418.68631 C 308.62936,415.52573 302.44965,401.97757 305.37543,394.35312 C 309.31911,384.07605 327.40207,386.48341 338.82211,398.80583 C 348.70747,409.47232 349.51316,409.63126 359.73766,402.93191 C 365.58643,399.09965 370.37179,393.79067 370.37179,391.13417 C 370.37179,388.47768 371.47605,387.40844 372.8257,388.75809 C 377.31896,393.25135 366.06213,408.65689 353.56256,415.12067 C 341.35179,421.4351 326.77585,422.83643 316.4745,418.68631 z M 332.44551,402.59612 C 326.32957,395.22686 315.46703,393.96999 315.46703,400.63158 C 315.46703,403.09157 317.15224,404.06277 319.21193,402.78981 C 321.27162,401.51685 325.34355,403.35116 328.26066,406.86606 C 331.17777,410.38096 334.51476,412.30651 335.67621,411.14507 C 336.83766,409.98362 335.38384,406.13659 332.44551,402.59612 z M 282.61657,375.62082 C 273.98556,370.28656 268.96644,350.36326 273.34944,338.83509 C 278.63892,324.9227 290.22692,326.73681 297.86494,342.67302 C 307.06513,361.86858 296.67844,384.31154 282.61657,375.62082 z M 288.0686,370.90551 C 286.66264,368.63062 287.49393,363.06665 289.91592,358.54114 C 295.16159,348.73951 291.58175,337.03068 283.33935,337.03068 C 275.94201,337.03068 275.30546,362.75482 282.52417,369.97354 C 288.64856,376.09793 291.58248,376.5911 288.0686,370.90551 z M 360.05267,348.76127 C 351.52838,336.59113 351.44203,313.37503 359.90898,310.12595 C 375.64652,304.08689 390.84024,340.21352 377.97399,353.07977 C 370.81009,360.24367 367.544,359.45664 360.05267,348.76127 z M 374.73966,326.85194 C 369.6331,313.42065 360.46273,314.2489 358.40215,328.32751 C 357.62608,333.6299 358.7053,336.90878 360.80041,335.61394 C 362.89553,334.31908 367.33159,337.06096 370.65833,341.707 C 378.44408,352.58035 380.99354,343.30091 374.73966,326.85194 z M 449.95641,443.9325 C 463.92703,435.10843 476.71519,403.99938 475.14035,382.66892 C 473.70226,363.1906 467.73852,358.52371 457.4426,368.81963 C 447.69638,378.56586 448.97379,391.54706 460.11996,396.02728 C 467.53849,399.00916 467.98179,399.90563 462.14113,400.11462 C 458.02626,400.26186 447.37012,405.20625 438.4608,411.10216 C 399.7084,436.74728 410.86896,468.62076 449.95641,443.9325 z M 260.56227,446.84391 C 260.56227,445.23902 256.83776,440.55528 252.28557,436.43561 C 242.11506,427.23143 222.55075,430.65679 222.55234,441.64137 C 222.55317,447.42987 226.5101,449.03624 241.55783,449.35691 C 252.01028,449.57965 260.56227,448.44881 260.56227,446.84391 z M 144.05064,407.28422 C 142.50645,403.26011 138.17802,400.55792 134.43191,401.27935 C 126.81307,402.74661 123.32935,414.20363 127.3311,424.63203 C 129.67158,430.73122 130.90406,430.55499 138.41138,423.04767 C 143.72161,417.73744 145.81569,411.88386 144.05064,407.28422 z M 243.6685,417.79324 C 243.6685,415.75477 240.81767,411.72096 237.33333,408.82922 C 232.04051,404.43656 230.99817,405.04636 230.99817,412.53552 C 230.99817,417.68791 233.69197,421.49955 237.33333,421.49955 C 240.81767,421.49955 243.6685,419.83171 243.6685,417.79324 z"
           id="path2529"
           style="fill:#978976" />
        <path
           d="M 155.2063,590.3209 C 134.9766,586.06652 122.71538,577.10027 127.20138,569.84176 C 128.7352,567.35999 137.39013,563.11235 146.43456,560.40258 C 160.89117,556.07127 163.20237,553.56149 165.5544,539.63997 C 167.91009,525.69673 166.24945,521.18769 151.65879,501.9101 C 142.54471,489.86832 129.07087,476.35689 121.7169,471.88468 C 102.10147,459.95582 96.435407,445.00375 105.52726,429.16212 C 109.49523,422.24832 112.74176,413.01002 112.74176,408.63257 C 112.74176,404.25512 117.96827,395.05218 124.35623,388.18159 C 130.74419,381.311 139.38539,370.79245 143.55889,364.80703 C 159.59834,341.80414 197.93773,356.50411 204.2525,388.07798 C 208.93071,411.46901 215.97473,389.33671 214.61431,355.52122 C 213.05648,316.79872 224.05693,289.77452 252.02683,263.61196 C 263.09291,253.26093 273.40942,239.76194 274.95241,233.61419 C 276.84172,226.08656 280.11293,222.89002 284.96986,223.82538 C 289.55765,224.70891 294.49727,220.58488 298.54515,212.49153 C 310.38376,188.82136 322.51483,199.69364 313.80207,226.1653 C 311.30798,233.74299 312.27131,235.66804 318.55743,235.66804 C 323.66875,235.66804 328.24295,230.6834 331.56688,221.49124 C 338.41863,202.54306 351.95198,190.21819 358.60307,196.86928 C 362.35471,200.62093 361.28742,205.78224 354.12458,218.5268 L 344.72064,235.25886 L 362.80177,240.1276 C 391.00757,247.72263 408.86277,258.4071 430.48103,280.62652 C 441.4536,291.90421 454.49624,304.67951 459.4647,309.01607 C 466.89217,315.49891 468.12727,320.19195 466.41169,335.41259 C 464.54952,351.93377 465.25547,353.92445 472.97653,353.92445 C 477.7348,353.92445 485.19806,350.69352 489.56157,346.7446 C 502.21141,335.29665 526.07194,337.42682 536.8693,350.96804 C 541.87028,357.23986 549.08079,362.37134 552.8927,362.37134 C 562.1934,362.37134 572.47271,373.19532 575.81371,386.50689 C 577.31485,392.48789 582.06909,400.90746 586.37865,405.21705 C 596.13455,414.97292 596.12404,423.23794 586.32839,444.72848 C 578.23539,462.48368 535.68276,517.76208 516.67466,535.21286 C 502.43253,548.28814 502.55786,554.99007 517.11282,558.64314 C 542.40496,564.99106 546.32597,578.00506 525.58333,586.75731 C 504.77254,595.53831 427.22957,594.40983 408.78976,585.05762 C 388.46417,574.74899 277.03992,574.40808 256.62563,584.59207 C 240.29185,592.74044 182.29022,596.01675 155.2063,590.3209 z M 253.65401,579.85265 C 270.95991,570.827 392.44999,570.84671 414.06651,579.87867 C 441.56902,591.36995 535.08608,586.4745 535.08608,573.5435 C 535.08608,569.0171 511.26576,560.90569 497.50071,560.74474 C 488.00154,560.63368 487.51574,560.0343 493.9075,556.31144 C 508.3375,547.90674 501.34675,544.10387 476.28237,546.72362 C 452.74381,549.18388 450.61989,548.64094 440.32391,537.53138 L 429.38161,525.72444 L 419.93805,534.35789 C 398.42377,554.0266 385.61265,557.19964 339.60694,554.25413 C 302.61354,551.88563 293.20312,549.69195 273.60947,538.86938 C 252.67223,527.30467 248.53848,526.48464 224.27605,529.08293 C 207.55919,530.87315 194.57237,530.19431 189.05577,527.24192 C 181.63527,523.27059 180.31685,523.78376 180.31685,530.64334 C 180.31685,541.40965 191.07449,549.8351 200.32442,546.3134 C 206.42509,543.99071 206.78299,544.47225 202.30672,548.98052 C 197.82066,553.49864 194.62895,553.21069 184.45147,547.36961 C 171.51126,539.94295 162.30106,544.54677 171.56523,553.81093 C 175.24572,557.49142 171.48871,559.73286 156.20401,562.97552 C 133.84776,567.7184 128.96075,577.54794 146.5293,582.43484 C 167.51255,588.27159 240.90344,586.50253 253.65401,579.85265 z M 491.4662,535.18093 C 511.46343,525.50043 555.35835,480.16091 571.70979,452.29648 C 583.06477,432.94648 583.80294,410.94094 573.09706,410.94094 C 568.87362,410.94094 566.05798,405.30968 564.65018,394.04716 C 562.83587,379.53273 560.95293,376.97003 551.28104,375.85146 C 543.27681,374.92575 539.45181,376.75648 538.04481,382.18662 C 536.64018,387.60756 535.92375,386.7261 535.576,379.14899 C 534.97838,366.12808 524.08046,349.70101 516.03982,349.70101 C 493.90661,349.70101 480.2621,370.2023 480.20487,403.54413 C 480.19192,411.09036 472.3014,434.76474 462.6704,456.15387 C 440.43745,505.53016 437.30004,527.41882 451.0729,537.0657 C 463.90378,546.0528 469.55236,545.78924 491.4662,535.18093 z M 541.42124,412.76617 C 534.45256,408.30241 530.91606,404.64024 533.56234,404.62801 C 536.20858,404.61578 542.86051,408.34364 548.34439,412.91215 C 560.90094,423.37283 557.88063,423.30914 541.42124,412.76617 z M 419.13337,525.16588 C 424.83501,519.46423 429.5,510.7996 429.5,505.91113 C 429.5,501.02267 431.10786,498.01673 433.07303,499.23127 C 437.49625,501.96497 457.34761,460.60967 453.47235,456.73442 C 448.53335,451.79542 416.8753,463.80889 403.82744,475.57348 C 387.58523,490.21825 382.70657,515.04771 393.6872,527.18117 C 403.43914,537.95695 406.59199,537.70725 419.13337,525.16588 z M 220.3236,521.35752 C 224.72399,518.13987 229.47363,507.49654 231.1608,497.07272 L 234.16434,478.51603 L 234.69298,496.46566 C 235.27446,516.20995 239.91335,519.0927 249.37243,505.58796 C 255.32364,497.09143 255.53045,497.2724 254.89122,510.41723 C 253.55241,537.94806 276.97319,526.43663 282.04156,497.07272 L 285.24454,478.51603 L 284.5794,497.52152 C 283.96333,515.12493 284.73785,516.62284 295.07825,517.82588 C 304.51942,518.9243 306.6803,517.13032 309.08083,506.2008 C 312.23168,491.85505 299.83861,466.96869 285.8031,459.45711 C 274.34607,453.32549 269.90125,454.63174 278.93483,461.47557 C 283.23251,464.73148 285.40769,469.56534 283.76857,472.21748 C 281.69147,475.57831 278.04375,474.57434 271.73118,468.90439 C 259.59796,458.00634 249.33372,454.7643 236.86871,457.89282 C 228.74641,459.93138 227.05726,462.4322 229.02639,469.50352 C 230.40671,474.4604 224.63982,466.6141 216.21107,452.06729 C 207.78231,437.52049 199.79098,418.51499 198.45254,409.83286 C 193.51672,377.81528 176.47425,360.68285 156.99589,368.1574 C 143.28761,373.41776 140.50014,408.82922 153.79434,408.82922 C 158.0648,408.82922 155.87982,413.60689 146.96682,423.75823 C 139.75751,431.96918 133.73851,440.99679 133.59127,443.81958 C 133.44403,446.64237 131.60472,444.67569 129.50392,439.44918 C 125.01849,428.29003 117.80029,427.07937 114.0483,436.85692 C 112.25242,441.53689 117.15958,449.37535 129.25146,461.14172 C 139.07169,470.69759 152.79093,486.7325 159.73866,496.77486 C 177.58528,522.57063 204.00448,533.29035 220.3236,521.35752 z M 350.08701,513.35944 C 356.03926,508.64846 369.38842,464.66448 365.56843,462.34991 C 364.72594,461.83944 350.31441,462.09575 333.5428,462.9195 L 303.04898,464.41723 L 311.90538,476.39615 C 318.79719,485.71783 320.13206,491.73172 317.92303,503.50691 C 315.12462,518.42372 315.28558,518.63874 329.25048,518.63874 C 337.04189,518.63874 346.41833,516.26305 350.08701,513.35944 z M 385.26388,488.86185 C 388.50242,482.59921 390.0633,476.38642 388.73253,475.05564 C 387.40175,473.72486 392.2221,469.04246 399.44441,464.65031 C 414.08073,455.74943 412.72924,451.06365 395.52568,451.06365 C 381.69901,451.06365 376.5795,456.88336 373.23394,476.40431 C 371.84057,484.53444 369.34672,495.93773 367.69204,501.74497 C 364.94478,511.38672 365.32143,511.78017 372.02959,506.27602 C 376.06991,502.96086 382.02535,495.12448 385.26388,488.86185 z M 381.57774,447.5956 C 410.57912,432.78644 433.72344,397.41299 433.72344,367.89685 C 433.72344,363.34475 438.47481,355.15662 444.28205,349.70101 C 450.08928,344.2454 454.84066,335.98642 454.84066,331.34773 C 454.84066,319.6136 442.75985,307.46658 431.08969,307.46658 C 423.99798,307.46658 422.0073,305.67085 423.83089,300.91864 C 427.47618,291.41918 392.78275,259.77529 371.84487,253.50214 C 341.36554,244.37032 336.58425,245.96089 336.58425,265.23215 C 336.58425,274.52372 334.6837,282.12592 332.3608,282.12592 C 330.03791,282.12592 328.13736,273.837 328.13736,263.7061 C 328.13736,246.29958 327.55222,245.39813 317.50058,247.31962 C 307.36322,249.2575 306.98205,250.37022 309.3824,271.01875 C 312.2987,296.10571 304.99125,290.72073 300.56482,264.52094 C 298.67289,253.3227 296.20476,249.51235 291.91049,251.16022 C 284.69807,253.92788 284.19194,267.51042 290.61469,285.93472 C 293.20615,293.36861 294.28816,300.48917 293.01914,301.75818 C 291.75012,303.0272 288.35916,295.80313 285.48368,285.70468 C 277.80832,258.74952 275.08236,257.57473 258.08868,273.89843 C 227.48635,303.29423 215.48292,346.86798 228.55695,381.10183 C 232.467,391.34016 238.52674,402.09107 242.02304,404.99274 C 245.51935,407.89442 250.97126,416.47036 254.1384,424.0504 C 259.64735,437.23517 274.67668,447.98639 298.54592,455.81728 C 316.85281,461.82331 362.58259,457.29522 381.57774,447.5956 z M 311.41197,411.14383 C 304.31266,402.58969 307.61367,390.23178 317.50685,388.32653 C 322.86945,387.29379 329.67909,391.39703 336.84226,399.97735 L 347.89969,413.22237 L 360.1916,404.27783 L 372.48351,395.33329 L 360.63353,406.3047 C 347.13145,418.80571 319.98567,421.4745 311.41197,411.14383 z M 336.83057,405.06602 C 331.5267,395.15565 319.61421,390.32233 314.0951,395.84144 C 308.00419,401.93235 316.93473,410.98226 330.11247,412.07288 C 339.60699,412.85867 340.50166,411.92553 336.83057,405.06602 z M 287.7654,370.41492 C 286.14584,367.79443 287.13108,364.22253 289.9548,362.47737 C 297.62686,357.73578 293.50153,339.46965 284.36507,337.72718 C 277.54058,336.42564 276.70721,338.48189 278.10764,353.16668 C 278.99621,362.48424 278.26283,369.20513 276.47791,368.10199 C 271.37206,364.9464 272.69027,339.26239 278.24306,333.70959 C 286.09993,325.85273 298.57326,339.79961 298.57326,356.4415 C 298.57326,371.01428 292.77162,378.51517 287.7654,370.41492 z M 357.98741,346.01186 C 351.1916,333.31377 352.49075,316.02721 360.47102,312.9649 C 369.78511,309.39075 383.1731,326.14253 382.60981,340.66615 C 382.19741,351.29892 382.0338,351.21169 379.06033,338.77374 C 374.94927,321.57729 371.16526,315.91346 363.78737,315.91346 C 359.84088,315.91346 357.70146,320.36754 357.70146,328.58379 C 357.70146,340.05614 361.4004,343.47124 371.8236,341.62229 C 377.0222,340.70012 372.80877,351.0004 367.22619,352.86127 C 364.62503,353.72832 360.46757,350.64609 357.98741,346.01186 z M 442.29876,334.21505 C 442.22812,326.85922 439.79464,319.8822 436.89102,318.71057 C 432.91188,317.10495 432.87528,316.49821 436.74242,316.24689 C 445.00333,315.71004 451.65623,331.74872 446.70075,340.25422 C 443.16516,346.32264 442.40501,345.27977 442.29876,334.21505 z M 453.98304,441.49592 C 469.03731,427.43857 474.88178,413.53439 476.56021,387.78414 C 477.83964,368.15532 476.91264,364.40235 470.47568,363.15059 C 451.57065,359.47421 442.31162,388.8692 460.11996,396.02728 C 469.32201,399.72605 469.34206,399.85538 460.75364,400.11462 C 438.36445,400.79043 405.95295,436.88159 414.83256,451.2491 C 419.22844,458.36178 441.9949,452.69019 453.98304,441.49592 z M 256.14875,439.0395 C 246.68842,426.24372 231.78679,425.15349 222.31667,436.56429 C 214.44372,446.0506 221.95585,451.06365 244.04419,451.06365 L 265.03859,451.06365 L 256.14875,439.0395 z M 139.83397,423.56823 C 145.24116,415.3158 145.75147,411.04395 142.13689,404.29004 C 133.27991,387.74062 120.65762,408.41875 127.97567,427.48929 C 131.30747,436.17181 131.64999,436.05855 139.83397,423.56823 z M 243.6685,416.5528 C 243.6685,410.65766 231.19273,396.15889 226.12014,396.15889 C 221.90485,396.15889 221.28801,414.60502 225.36691,418.68392 C 230.08585,423.40285 243.6685,421.82122 243.6685,416.5528 z"
           id="path2527"
           style="fill:#4e98a2" />
        <path
           d="M 321.8022,552.79925 C 299.99045,550.9661 286.85878,547.1527 271.72375,538.25659 C 252.93118,527.21065 248.96783,526.43866 224.50204,529.05873 C 207.58509,530.87038 194.59116,530.20437 189.05577,527.24192 C 181.63527,523.27059 180.31685,523.78376 180.31685,530.64334 C 180.31685,541.01443 190.96391,549.88297 199.48792,546.612 C 203.28888,545.15343 205.00004,545.84981 203.51589,548.25122 C 202.09671,550.54751 198.4532,552.42629 195.41922,552.42629 C 186.16483,552.42629 167.19836,535.06108 168.3984,527.68673 C 169.49924,520.92207 139.12103,476.40431 133.40411,476.40431 C 131.82271,476.40431 124.62619,470.89042 117.41185,464.15121 C 103.4011,451.06321 99.633617,431.47002 110.3379,427.3624 C 113.77773,426.04241 116.2317,419.79478 116.0345,412.85921 C 115.65301,399.44168 123.22329,387.712 132.26439,387.712 C 135.46431,387.712 138.08242,384.04884 138.08242,379.57165 C 138.08242,369.85223 156.99821,353.92445 168.54097,353.92445 C 183.32566,353.92445 200.13212,375.56197 203.31334,398.69225 C 206.30974,420.47867 211.80571,433.65293 216.10464,429.354 C 217.45738,428.00126 216.55995,421.62298 214.11035,415.18005 C 210.74922,406.33961 211.05385,401.2741 215.352,394.53295 C 219.43029,388.13663 220.03842,380.90072 217.49374,369.0491 C 213.48323,350.37054 218.89317,314.12112 228.44918,295.64182 C 234.83276,283.29734 251.6929,264.57856 268.16546,251.54729 C 273.27528,247.50496 277.45604,240.3779 277.45604,235.70938 C 277.45604,230.70775 280.26059,227.22116 284.28379,227.22116 C 289.09545,227.22116 290.44066,229.78662 288.83951,235.90942 C 286.97523,243.03845 287.64478,243.7036 292.57037,239.61572 C 295.87196,236.87565 298.57326,230.27055 298.57326,224.93772 C 298.57326,210.6855 302.87671,201.8805 309.84251,201.8805 C 314.74802,201.8805 315.3983,205.79019 313.07247,221.29998 C 310.4743,238.6258 310.98914,240.55985 317.84778,239.23899 C 322.07588,238.42474 330.17854,228.7357 335.8537,217.70779 C 341.52885,206.67989 348.76626,197.65705 351.93681,197.65705 C 359.804,197.65705 359.18545,203.36576 349.3248,221.76359 L 340.94814,237.39262 L 362.9486,243.02295 C 392.68509,250.63307 418.49688,266.43422 429.02871,283.47508 C 433.8196,291.22691 442.57564,299.77284 448.48656,302.46604 C 469.2007,311.90403 471.38885,336.89142 453.36264,358.1479 C 448.43791,363.95513 447.13591,366.33082 450.46931,363.4272 C 453.80271,360.52358 460.42616,358.15318 465.18809,358.15963 C 469.95002,358.16608 481.58331,354.07357 491.03985,349.06516 C 511.76981,338.08606 528.90954,340.79354 535.90762,356.15269 C 538.93275,362.79205 544.15381,366.59478 550.24439,366.59478 C 562.38907,366.59478 573.09706,377.14438 573.09706,389.10946 C 573.09706,394.19201 576.89816,400.72429 581.54395,403.62563 C 602.24562,416.55403 584.8928,456.0338 533.65103,512.5879 C 500.25338,549.44795 460.85184,559.68139 439.79774,536.96364 L 429.38161,525.72444 L 419.93805,534.35789 C 396.26494,556.00025 385.02381,558.11264 321.8022,552.79925 z M 491.4662,535.18093 C 511.46343,525.50043 555.35835,480.16091 571.70979,452.29648 C 583.06477,432.94648 583.80294,410.94094 573.09706,410.94094 C 568.87362,410.94094 566.05798,405.30968 564.65018,394.04716 C 562.83587,379.53273 560.95293,376.97003 551.28104,375.85146 C 543.27681,374.92575 539.45181,376.75648 538.04481,382.18662 C 536.64018,387.60756 535.92375,386.7261 535.576,379.14899 C 534.97838,366.12808 524.08046,349.70101 516.03982,349.70101 C 493.90661,349.70101 480.2621,370.2023 480.20487,403.54413 C 480.19192,411.09036 472.3014,434.76474 462.6704,456.15387 C 440.43745,505.53016 437.30004,527.41882 451.0729,537.0657 C 463.90378,546.0528 469.55236,545.78924 491.4662,535.18093 z M 541.42124,412.76617 C 534.45256,408.30241 530.91606,404.64024 533.56234,404.62801 C 536.20858,404.61578 542.86051,408.34364 548.34439,412.91215 C 560.90094,423.37283 557.88063,423.30914 541.42124,412.76617 z M 419.13337,525.16588 C 424.83501,519.46423 429.5,510.7996 429.5,505.91113 C 429.5,501.02267 431.10786,498.01673 433.07303,499.23127 C 437.49625,501.96497 457.34761,460.60967 453.47235,456.73442 C 448.53335,451.79542 416.8753,463.80889 403.82744,475.57348 C 387.58523,490.21825 382.70657,515.04771 393.6872,527.18117 C 403.43914,537.95695 406.59199,537.70725 419.13337,525.16588 z M 220.3236,521.35752 C 224.72399,518.13987 229.47363,507.49654 231.1608,497.07272 L 234.16434,478.51603 L 234.69298,496.46566 C 235.27446,516.20995 239.91335,519.0927 249.37243,505.58796 C 255.32364,497.09143 255.53045,497.2724 254.89122,510.41723 C 253.55241,537.94806 276.97319,526.43663 282.04156,497.07272 L 285.24454,478.51603 L 284.5794,497.52152 C 283.96333,515.12493 284.73785,516.62284 295.07825,517.82588 C 304.51942,518.9243 306.6803,517.13032 309.08083,506.2008 C 312.23168,491.85505 299.83861,466.96869 285.8031,459.45711 C 274.34607,453.32549 269.90125,454.63174 278.93483,461.47557 C 283.23251,464.73148 285.40769,469.56534 283.76857,472.21748 C 281.69147,475.57831 278.04375,474.57434 271.73118,468.90439 C 259.59796,458.00634 249.33372,454.7643 236.86871,457.89282 C 228.74641,459.93138 227.05726,462.4322 229.02639,469.50352 C 230.40671,474.4604 224.63982,466.6141 216.21107,452.06729 C 207.78231,437.52049 199.79098,418.51499 198.45254,409.83286 C 193.51672,377.81528 176.47425,360.68285 156.99589,368.1574 C 143.28761,373.41776 140.50014,408.82922 153.79434,408.82922 C 158.0648,408.82922 155.87982,413.60689 146.96682,423.75823 C 139.75751,431.96918 133.73851,440.99679 133.59127,443.81958 C 133.44403,446.64237 131.60472,444.67569 129.50392,439.44918 C 125.01849,428.29003 117.80029,427.07937 114.0483,436.85692 C 112.25242,441.53689 117.15958,449.37535 129.25146,461.14172 C 139.07169,470.69759 152.79093,486.7325 159.73866,496.77486 C 177.58528,522.57063 204.00448,533.29035 220.3236,521.35752 z M 350.08701,513.35944 C 356.03926,508.64846 369.38842,464.66448 365.56843,462.34991 C 364.72594,461.83944 350.31441,462.09575 333.5428,462.9195 L 303.04898,464.41723 L 311.90538,476.39615 C 318.79719,485.71783 320.13206,491.73172 317.92303,503.50691 C 315.12462,518.42372 315.28558,518.63874 329.25048,518.63874 C 337.04189,518.63874 346.41833,516.26305 350.08701,513.35944 z M 385.26388,488.86185 C 388.50242,482.59921 390.0633,476.38642 388.73253,475.05564 C 387.40175,473.72486 392.2221,469.04246 399.44441,464.65031 C 414.08073,455.74943 412.72924,451.06365 395.52568,451.06365 C 381.69901,451.06365 376.5795,456.88336 373.23394,476.40431 C 371.84057,484.53444 369.34672,495.93773 367.69204,501.74497 C 364.94478,511.38672 365.32143,511.78017 372.02959,506.27602 C 376.06991,502.96086 382.02535,495.12448 385.26388,488.86185 z M 381.57774,447.5956 C 410.57912,432.78644 433.72344,397.41299 433.72344,367.89685 C 433.72344,363.34475 438.47481,355.15662 444.28205,349.70101 C 450.08928,344.2454 454.84066,335.98642 454.84066,331.34773 C 454.84066,319.6136 442.75985,307.46658 431.08969,307.46658 C 423.99798,307.46658 422.0073,305.67085 423.83089,300.91864 C 427.47618,291.41918 392.78275,259.77529 371.84487,253.50214 C 341.36554,244.37032 336.58425,245.96089 336.58425,265.23215 C 336.58425,274.52372 334.6837,282.12592 332.3608,282.12592 C 330.03791,282.12592 328.13736,273.837 328.13736,263.7061 C 328.13736,246.29958 327.55222,245.39813 317.50058,247.31962 C 307.36322,249.2575 306.98205,250.37022 309.3824,271.01875 C 312.2987,296.10571 304.99125,290.72073 300.56482,264.52094 C 298.67289,253.3227 296.20476,249.51235 291.91049,251.16022 C 284.69807,253.92788 284.19194,267.51042 290.61469,285.93472 C 293.20615,293.36861 294.28816,300.48917 293.01914,301.75818 C 291.75012,303.0272 288.35916,295.80313 285.48368,285.70468 C 277.80832,258.74952 275.08236,257.57473 258.08868,273.89843 C 227.48635,303.29423 215.48292,346.86798 228.55695,381.10183 C 232.467,391.34016 238.52674,402.09107 242.02304,404.99274 C 245.51935,407.89442 250.97126,416.47036 254.1384,424.0504 C 259.64735,437.23517 274.67668,447.98639 298.54592,455.81728 C 316.85281,461.82331 362.58259,457.29522 381.57774,447.5956 z M 311.41197,411.14383 C 304.31266,402.58969 307.61367,390.23178 317.50685,388.32653 C 322.86945,387.29379 329.67909,391.39703 336.84226,399.97735 L 347.89969,413.22237 L 360.1916,404.27783 L 372.48351,395.33329 L 360.63353,406.3047 C 347.13145,418.80571 319.98567,421.4745 311.41197,411.14383 z M 336.83057,405.06602 C 331.5267,395.15565 319.61421,390.32233 314.0951,395.84144 C 308.00419,401.93235 316.93473,410.98226 330.11247,412.07288 C 339.60699,412.85867 340.50166,411.92553 336.83057,405.06602 z M 287.7654,370.41492 C 286.14584,367.79443 287.13108,364.22253 289.9548,362.47737 C 297.62686,357.73578 293.50153,339.46965 284.36507,337.72718 C 277.54058,336.42564 276.70721,338.48189 278.10764,353.16668 C 278.99621,362.48424 278.26283,369.20513 276.47791,368.10199 C 271.37206,364.9464 272.69027,339.26239 278.24306,333.70959 C 286.09993,325.85273 298.57326,339.79961 298.57326,356.4415 C 298.57326,371.01428 292.77162,378.51517 287.7654,370.41492 z M 357.98741,346.01186 C 351.1916,333.31377 352.49075,316.02721 360.47102,312.9649 C 369.78511,309.39075 383.1731,326.14253 382.60981,340.66615 C 382.19741,351.29892 382.0338,351.21169 379.06033,338.77374 C 374.94927,321.57729 371.16526,315.91346 363.78737,315.91346 C 359.84088,315.91346 357.70146,320.36754 357.70146,328.58379 C 357.70146,340.05614 361.4004,343.47124 371.8236,341.62229 C 377.0222,340.70012 372.80877,351.0004 367.22619,352.86127 C 364.62503,353.72832 360.46757,350.64609 357.98741,346.01186 z M 442.29876,334.21505 C 442.22812,326.85922 439.79464,319.8822 436.89102,318.71057 C 432.91188,317.10495 432.87528,316.49821 436.74242,316.24689 C 445.00333,315.71004 451.65623,331.74872 446.70075,340.25422 C 443.16516,346.32264 442.40501,345.27977 442.29876,334.21505 z M 453.98304,441.49592 C 469.03731,427.43857 474.88178,413.53439 476.56021,387.78414 C 477.83964,368.15532 476.91264,364.40235 470.47568,363.15059 C 451.57065,359.47421 442.31162,388.8692 460.11996,396.02728 C 469.32201,399.72605 469.34206,399.85538 460.75364,400.11462 C 438.36445,400.79043 405.95295,436.88159 414.83256,451.2491 C 419.22844,458.36178 441.9949,452.69019 453.98304,441.49592 z M 256.14875,439.0395 C 246.68842,426.24372 231.78679,425.15349 222.31667,436.56429 C 214.44372,446.0506 221.95585,451.06365 244.04419,451.06365 L 265.03859,451.06365 L 256.14875,439.0395 z M 139.83397,423.56823 C 145.24116,415.3158 145.75147,411.04395 142.13689,404.29004 C 133.27991,387.74062 120.65762,408.41875 127.97567,427.48929 C 131.30747,436.17181 131.64999,436.05855 139.83397,423.56823 z M 243.6685,416.5528 C 243.6685,410.65766 231.19273,396.15889 226.12014,396.15889 C 221.90485,396.15889 221.28801,414.60502 225.36691,418.68392 C 230.08585,423.40285 243.6685,421.82122 243.6685,416.5528 z M 446.39377,393.53003 C 446.39377,388.79836 438.46211,392.94783 436.19034,398.86799 C 433.96599,404.66455 434.58401,404.92584 439.96192,400.46257 C 443.49944,397.52669 446.39377,394.40705 446.39377,393.53003 z"
           id="path2525"
           style="fill:#308d99" />
        <path
           d="M 321.8022,552.79925 C 299.99045,550.9661 286.85878,547.1527 271.72375,538.25659 C 252.93118,527.21065 248.96783,526.43866 224.50204,529.05873 C 207.58509,530.87038 194.59116,530.20437 189.05577,527.24192 C 181.63527,523.27059 180.31685,523.78376 180.31685,530.64334 C 180.31685,541.40965 191.07449,549.8351 200.32442,546.3134 C 206.40147,543.9997 206.77189,544.48347 202.34063,548.94661 C 193.89473,557.45327 174.52689,544.80669 171.86996,529.05024 C 169.20386,513.23932 144.50503,480.33879 126.31362,468.36606 C 107.18292,455.77513 100.72365,440.89287 109.95993,430.6869 C 113.81283,426.42949 116.9652,417.91311 116.9652,411.7616 C 116.9652,404.49192 120.66097,398.15549 127.52381,393.65879 C 133.33104,389.85374 138.08242,384.10828 138.08242,380.8911 C 138.08242,370.97899 154.34633,358.1479 166.91032,358.1479 C 183.39353,358.1479 196.3125,373.395 201.0928,398.49041 C 205.07752,419.40922 209.63085,434.16988 212.09911,434.16988 C 212.82205,434.16988 216.50186,432.98478 220.27647,431.53633 C 226.58239,429.11652 226.56816,428.27158 220.10125,421.12571 C 215.11172,415.61235 213.94109,409.92491 216.07949,401.58618 C 217.7385,395.11683 218.78748,376.95923 218.41057,361.23595 C 218.03365,345.51268 220.03613,325.55691 222.86053,316.8898 C 230.04578,294.84071 250.96972,265.48521 265.31764,257.32407 C 272.8243,253.05426 277.41275,246.94445 277.42934,241.1966 C 277.44403,236.10718 279.35659,230.76851 281.67949,229.33288 C 284.00238,227.89725 285.90293,230.63591 285.90293,235.41879 C 285.90293,240.33306 288.65803,244.11493 292.23809,244.11493 C 296.29727,244.11493 298.62703,239.94229 298.72292,232.50046 C 298.91096,217.90755 308.90439,198.9022 312.94872,205.44607 C 314.54864,208.03478 313.86921,213.86825 311.4389,218.40933 C 303.48268,233.27566 306.0239,239.89149 319.69047,239.89149 C 328.59272,239.89149 332.3608,237.84169 332.3608,232.99897 C 332.3608,223.28997 349.21034,197.13121 353.68345,199.89574 C 355.72253,201.15596 353.66677,208.29486 349.11507,215.75997 C 337.2165,235.27446 338.48451,238.30932 360.86905,243.89197 C 389.68178,251.07779 415.33812,267.38282 428.04408,286.58282 C 434.10798,295.74599 441.37306,303.24313 444.18871,303.24313 C 453.10771,303.24313 463.28754,318.22311 463.28754,331.34773 C 463.28754,339.38821 459.43617,347.62334 452.72893,353.92445 C 446.9217,359.38007 442.17033,367.3746 442.17033,371.69009 C 442.17033,376.00557 439.40843,386.14657 436.03277,394.22566 C 430.12452,408.36609 430.20342,408.74995 438.14449,404.50002 C 443.77708,401.48554 446.39377,395.65101 446.39377,386.10626 C 446.39377,370.8465 456.96925,358.1479 469.67768,358.1479 C 473.98789,358.1479 485.61594,354.22602 495.5178,349.43262 C 515.29213,339.86002 526.65076,342.38634 535.1379,358.24469 C 537.59573,362.83724 542.97771,366.59478 547.09776,366.59478 C 559.06231,366.59478 570.62656,377.44142 571.13886,389.14399 C 571.39873,395.08015 575.978,403.47291 581.315,407.79456 C 589.2712,414.23711 590.48591,418.0778 588.06022,429.12194 C 582.31566,455.27669 518.56925,532.13198 494.04316,542.47276 C 471.76028,551.86774 451.7246,549.83294 439.79774,536.96364 L 429.38161,525.72444 L 419.93805,534.35789 C 396.26494,556.00025 385.02381,558.11264 321.8022,552.79925 z M 393.41693,545.80743 C 401.54508,539.76151 401.52173,539.55028 391.98726,532.87207 C 382.39199,526.15129 381.67575,516.60322 387.81142,477.20462 C 388.2855,474.16046 394.05827,468.88514 400.6398,465.48169 C 416.71483,457.16898 415.74153,451.06365 398.34131,451.06365 C 381.45714,451.06365 378.16575,454.80628 370.48456,482.73947 C 364.13555,505.8281 363.49326,519.34767 367.97645,535.53251 L 370.90117,546.09112 L 364.45097,535.53251 C 356.26819,522.13775 356.17894,509.177 364.0899,483.09899 C 367.55326,471.68225 369.90837,461.92703 369.32349,461.42073 C 368.73861,460.91442 353.59521,461.47358 335.67149,462.6633 C 303.60261,464.79194 303.18166,464.96741 309.27497,473.66684 C 312.68061,478.52906 315.46703,488.12621 315.46703,494.99383 C 315.46703,509.76541 306.80532,535.53251 301.8398,535.53251 C 299.9239,535.53251 301.25597,529.92525 304.79997,523.07192 C 313.85287,505.56552 312.81633,488.03821 301.88644,473.8063 C 290.08539,458.44002 285.80005,455.43229 275.59296,455.35177 C 267.68405,455.28937 267.66936,455.48793 275.17691,460.97758 C 280.20012,464.65064 281.33843,467.6697 278.38769,469.49336 C 275.8734,471.04727 272.55005,470.26987 271.00245,467.7658 C 266.43986,460.38338 248.11408,455.07041 236.91122,457.88215 C 228.74777,459.93104 227.05537,462.42544 229.02639,469.50352 C 230.40671,474.4604 224.63982,466.6141 216.21107,452.06729 C 207.78231,437.52049 199.79098,418.51499 198.45254,409.83286 C 193.51672,377.81528 176.47425,360.68285 156.99589,368.1574 C 143.28761,373.41776 140.50014,408.82922 153.79434,408.82922 C 158.0648,408.82922 155.87982,413.60689 146.96682,423.75823 C 139.75751,431.96918 133.73851,440.99679 133.59127,443.81958 C 133.44403,446.64237 131.60472,444.67569 129.50392,439.44918 C 125.00584,428.25855 117.79761,427.08637 114.01979,436.93121 C 112.1848,441.71311 116.55558,448.67586 127.87853,459.00849 C 136.97501,467.30937 149.52494,482.09956 155.76726,491.87557 C 168.56093,511.91154 181.30735,521.60742 199.54312,525.17472 C 217.08584,528.60646 227.56425,519.29318 231.1608,497.07272 L 234.16434,478.51603 L 234.69298,496.46566 C 235.28303,516.50078 239.91493,519.08043 249.85979,504.91255 C 256.44316,495.53361 256.49556,495.58296 253.88205,508.69971 C 251.41029,521.10504 252.59129,522.78502 271.62559,533.93986 C 291.75707,545.73769 298.45896,546.88547 372.48351,551.21301 C 379.4522,551.6204 388.87223,549.18789 393.41693,545.80743 z M 282.50284,495.4098 C 282.41677,488.44112 283.2929,485.07899 284.4498,487.9384 C 285.6067,490.79781 285.67712,496.49946 284.60629,500.60873 C 283.53547,504.718 282.58891,502.37848 282.50284,495.4098 z M 491.4662,535.18093 C 511.46343,525.50043 555.35835,480.16091 571.70979,452.29648 C 583.06477,432.94648 583.80294,410.94094 573.09706,410.94094 C 568.87362,410.94094 566.05798,405.30968 564.65018,394.04716 C 562.83587,379.53273 560.95293,376.97003 551.28104,375.85146 C 543.27681,374.92575 539.45181,376.75648 538.04481,382.18662 C 536.64018,387.60756 535.92375,386.7261 535.576,379.14899 C 534.97838,366.12808 524.08046,349.70101 516.03982,349.70101 C 493.90661,349.70101 480.2621,370.2023 480.20487,403.54413 C 480.19192,411.09036 472.3014,434.76474 462.6704,456.15387 C 440.43745,505.53016 437.30004,527.41882 451.0729,537.0657 C 463.90378,546.0528 469.55236,545.78924 491.4662,535.18093 z M 541.42124,412.76617 C 534.45256,408.30241 530.91606,404.64024 533.56234,404.62801 C 536.20858,404.61578 542.86051,408.34364 548.34439,412.91215 C 560.90094,423.37283 557.88063,423.30914 541.42124,412.76617 z M 419.13337,525.16588 C 424.83501,519.46423 429.5,510.7996 429.5,505.91113 C 429.5,501.02267 431.10786,498.01673 433.07303,499.23127 C 437.49625,501.96497 457.34761,460.60967 453.47235,456.73442 C 448.53335,451.79542 416.8753,463.80889 403.82744,475.57348 C 387.58523,490.21825 382.70657,515.04771 393.6872,527.18117 C 403.43914,537.95695 406.59199,537.70725 419.13337,525.16588 z M 381.57774,447.5956 C 410.57912,432.78644 433.72344,397.41299 433.72344,367.89685 C 433.72344,363.34475 438.47481,355.15662 444.28205,349.70101 C 450.08928,344.2454 454.84066,335.98642 454.84066,331.34773 C 454.84066,319.6136 442.75985,307.46658 431.08969,307.46658 C 423.99798,307.46658 422.0073,305.67085 423.83089,300.91864 C 427.47618,291.41918 392.78275,259.77529 371.84487,253.50214 C 341.36554,244.37032 336.58425,245.96089 336.58425,265.23215 C 336.58425,274.52372 334.6837,282.12592 332.3608,282.12592 C 330.03791,282.12592 328.13736,273.837 328.13736,263.7061 C 328.13736,246.29958 327.55222,245.39813 317.50058,247.31962 C 307.36322,249.2575 306.98205,250.37022 309.3824,271.01875 C 312.2987,296.10571 304.99125,290.72073 300.56482,264.52094 C 298.67289,253.3227 296.20476,249.51235 291.91049,251.16022 C 284.69807,253.92788 284.19194,267.51042 290.61469,285.93472 C 293.20615,293.36861 294.28816,300.48917 293.01914,301.75818 C 291.75012,303.0272 288.35916,295.80313 285.48368,285.70468 C 277.80832,258.74952 275.08236,257.57473 258.08868,273.89843 C 227.48635,303.29423 215.48292,346.86798 228.55695,381.10183 C 232.467,391.34016 238.52674,402.09107 242.02304,404.99274 C 245.51935,407.89442 250.97126,416.47036 254.1384,424.0504 C 259.64735,437.23517 274.67668,447.98639 298.54592,455.81728 C 316.85281,461.82331 362.58259,457.29522 381.57774,447.5956 z M 311.41197,411.14383 C 304.31266,402.58969 307.61367,390.23178 317.50685,388.32653 C 322.86945,387.29379 329.67909,391.39703 336.84226,399.97735 L 347.89969,413.22237 L 360.1916,404.27783 L 372.48351,395.33329 L 360.63353,406.3047 C 347.13145,418.80571 319.98567,421.4745 311.41197,411.14383 z M 336.83057,405.06602 C 331.5267,395.15565 319.61421,390.32233 314.0951,395.84144 C 308.00419,401.93235 316.93473,410.98226 330.11247,412.07288 C 339.60699,412.85867 340.50166,411.92553 336.83057,405.06602 z M 287.7654,370.41492 C 286.14584,367.79443 287.13108,364.22253 289.9548,362.47737 C 297.62686,357.73578 293.50153,339.46965 284.36507,337.72718 C 277.54058,336.42564 276.70721,338.48189 278.10764,353.16668 C 278.99621,362.48424 278.26283,369.20513 276.47791,368.10199 C 271.37206,364.9464 272.69027,339.26239 278.24306,333.70959 C 286.09993,325.85273 298.57326,339.79961 298.57326,356.4415 C 298.57326,371.01428 292.77162,378.51517 287.7654,370.41492 z M 357.98741,346.01186 C 351.1916,333.31377 352.49075,316.02721 360.47102,312.9649 C 369.78511,309.39075 383.1731,326.14253 382.60981,340.66615 C 382.19741,351.29892 382.0338,351.21169 379.06033,338.77374 C 374.94927,321.57729 371.16526,315.91346 363.78737,315.91346 C 359.84088,315.91346 357.70146,320.36754 357.70146,328.58379 C 357.70146,340.05614 361.4004,343.47124 371.8236,341.62229 C 377.0222,340.70012 372.80877,351.0004 367.22619,352.86127 C 364.62503,353.72832 360.46757,350.64609 357.98741,346.01186 z M 442.29876,334.21505 C 442.22812,326.85922 439.79464,319.8822 436.89102,318.71057 C 432.91188,317.10495 432.87528,316.49821 436.74242,316.24689 C 445.00333,315.71004 451.65623,331.74872 446.70075,340.25422 C 443.16516,346.32264 442.40501,345.27977 442.29876,334.21505 z M 453.98304,441.49592 C 469.03731,427.43857 474.88178,413.53439 476.56021,387.78414 C 477.83964,368.15532 476.91264,364.40235 470.47568,363.15059 C 451.57065,359.47421 442.31162,388.8692 460.11996,396.02728 C 469.32201,399.72605 469.34206,399.85538 460.75364,400.11462 C 438.36445,400.79043 405.95295,436.88159 414.83256,451.2491 C 419.22844,458.36178 441.9949,452.69019 453.98304,441.49592 z M 256.14875,439.0395 C 246.68842,426.24372 231.78679,425.15349 222.31667,436.56429 C 214.44372,446.0506 221.95585,451.06365 244.04419,451.06365 L 265.03859,451.06365 L 256.14875,439.0395 z M 139.83397,423.56823 C 145.24116,415.3158 145.75147,411.04395 142.13689,404.29004 C 133.27991,387.74062 120.65762,408.41875 127.97567,427.48929 C 131.30747,436.17181 131.64999,436.05855 139.83397,423.56823 z M 243.6685,416.5528 C 243.6685,410.65766 231.19273,396.15889 226.12014,396.15889 C 221.90485,396.15889 221.28801,414.60502 225.36691,418.68392 C 230.08585,423.40285 243.6685,421.82122 243.6685,416.5528 z"
           id="path2523"
           style="fill:#1b2322" />
      </g>
      <path
         d="M 241.45415,336.61409 C 238.56019,333.72012 238.38561,330.86544 240.79786,325.88242 C 246.20321,314.71645 265.01693,307.63945 272.40388,313.99343 C 276.30049,317.34518 275.34691,320.86738 268.78396,327.36395 C 259.67669,336.3791 245.88662,341.04655 241.45416,336.61409 L 241.45415,336.61409 z"
         id="path2555"
         style="fill:#f8e8d3;fill-opacity:1;stroke:#000000;stroke-width:0;stroke-miterlimit:4;stroke-dasharray:none;stroke-opacity:1" />
    </g>
  </g>
</svg>
